<?xml version="1.0" encoding="utf-8"?>
<!-- Generator: Adobe Illustrator 21.0.0, SVG Export Plug-In . SVG Version: 6.00 Build 0)  -->
<svg version="1.1" id="Layer_1" xmlns="http://www.w3.org/2000/svg" xmlns:xlink="http://www.w3.org/1999/xlink" x="0px" y="0px"
	 width="640px" height="480px" viewBox="0 0 640 480" style="enable-background:new 0 0 640 480;" xml:space="preserve">
<style type="text/css">
	.st0{fill:none;stroke:#DEDEDE;stroke-miterlimit:10;}
</style>
<g>
	<path class="st0" d="M614.4,341.6c-0.7,5.5-1,11-2,16.4c-3.3,18.8-9.8,36.2-22.4,51c-5,5.9-11.1,9.7-18.8,10.6
		c-2.8,0.3-5.8-0.3-8.7-0.5c-0.9,0-2.1-0.2-2.7,0.3c-6.2,4.9-13.5,7.2-21,9.3c-14.5,4-29.3,6.2-44.2,7.8
		c-11.8,1.2-23.6,2.8-35.3,2.8c-26.5,0-53-0.9-79.5-1.4c-17.1-0.3-34.2-0.6-51.3-1c-26.6-0.6-53.1-1.1-79.7-1.8
		c-20.9-0.6-41.8-1.3-62.7-2.1c-21.8-0.8-43.5-1.8-65.3-2.9c-14.9-0.7-29.4-3.3-43.2-9.2c-11.8-5-20.1-13.6-26.9-24.1
		c-11.2-17.5-17.5-36.6-19.8-57.1c-0.3-2.7-0.3-5.5-0.7-8.2c-0.2-1.3-0.6-2.7-1.2-3.8c-2.7-4.8-2.4-9.8-1.3-14.9
		c0.5-2.3,1.2-4.6,2.2-6.7c1.8-3.7,0.1-6.8-1.3-9.9c-0.7-1.5-1.7-2.8-2.6-4.3c0-1.6,0-3.2,0-4.9c0.3-0.8,0.6-1.6,0.9-2.5
		c0.7-1.8,2-2.9,4.1-2.8c0.5,0,1,0,1.5,0c3.3-0.1,3.5-0.7,2.9-3.5c-4.3-20.1-4.6-40.1,0.2-60.2c3.6-15.1,12.1-26.9,23.5-36.8
		c14.8-12.9,31.1-23.5,49.3-31.1c8-3.4,15.8-7.5,23.5-11.5c2.2-1.2,4.1-3.1,6-4.8c0.6-0.5,1.1-1.7,0.9-2.3c-0.2-0.5-1.4-1-2.2-1
		c-4.3-0.4-8.6-0.4-12.8-1c-7.9-1.1-12.3-6.3-12-13.6c0.4-8.6,5.6-14.4,13.3-15c3.4-0.3,6.8-0.8,10.2-0.6c8.7,0.5,13.2,5.4,13.6,14
		c0,0.5,0.1,0.9,0.1,1.9c0.5-0.6,0.7-0.8,0.9-1.1c6.7-13.2,16.1-24.7,25.4-36.1c4.9-6,10.4-11.6,15.7-17.2
		c7.8-8.4,17.7-12.8,28.9-13.9c17.6-1.7,35.3-3.4,53-4.5c14.2-0.9,28.5-1.2,42.7-1.5c15.2-0.4,30.5-0.8,45.7-0.7
		c25.5,0.2,50.7,2.5,75.6,8.5c9.6,2.3,17,7.3,23.2,14.8c10.8,13,20.1,27,29.1,41.3c2.7,4.3,5.2,8.6,7.9,12.8
		c0.3,0.6,1.2,0.8,1.8,1.2c0.1-0.7,0.3-1.4,0.2-2c-0.5-3.1-1.3-6.2-1.5-9.3c-0.2-4.2,2.1-7.3,5.9-8.9c1.5-0.7,3.3-1.1,4.9-1.2
		c6.4-0.5,12.8,0,18.9,2c7.9,2.6,10.9,8.9,9.1,17.9c-0.9,4.3-3,7.3-7.5,8.2c-6.9,1.3-13.9,2.4-20.8,3.6c-1,0.2-2.1,0.2-3.1,0.3
		c-0.7,3.7,0.2,5.5,3.3,6.8c17.5,7.5,32.6,18.5,46.8,30.9c10.9,9.5,20.9,19.9,30.2,30.9c5.3,6.2,8,13.6,10.3,21.3
		c3.6,12.1,5.7,24.5,6.6,37c0.8,10.8,2.8,21.2,5.8,31.6c3.4,11.6,5.1,23.6,5.7,35.7c0,0.9,0.3,1.7,0.4,2.6
		C614.4,331.8,614.4,336.7,614.4,341.6z M506.1,137.1c-2.2-2-1.9-4.8-2.3-7.6c1.7-0.2,3.1-0.3,4.5-0.5c6.3-1,12.6-2.1,18.9-3.1
		c5.7-0.9,8.1-4.5,8.8-10c0.9-7.3-2-12.7-9.1-14.9c-6.1-1.9-12.5-2.7-18.9-1.8c-7.6,1-10.8,5.7-9.3,13.2c0.5,2.4,1.3,4.8,2,7.2
		c-2.5,1.7-3,1.6-4.4-0.7c-3.6-5.9-7.1-11.8-10.8-17.6c-8.9-13.9-18-27.7-29.2-40c-4.3-4.7-9.3-8.1-15.6-9.8
		c-17.7-4.9-35.8-7.8-54.1-8.6c-16.4-0.7-32.9-0.8-49.3-0.6c-22.5,0.3-45,0.9-67.5,2c-16.6,0.9-33.2,2.7-49.8,4.4
		c-10.3,1.1-19.5,5-27,12.5c-16.9,17-31.9,35.3-43.2,56.5c-0.4,0.7-0.8,1.4-1.2,2c-0.2-0.1-0.4-0.2-0.6-0.2c0.1-0.9,0.2-1.9,0.3-2.8
		c0.9-9-3.6-14.8-12.6-15.6c-3.7-0.3-7.4,0.2-11.1,0.6c-6.6,0.8-11.3,6.7-11.5,14.2c-0.2,6.7,3.7,11.4,10.7,12.6
		c1.9,0.3,3.9,0.3,5.8,0.5c2.9,0.2,5.8,0.4,8.7,0.8c2.1,0.3,2.6,1.5,1.5,3.3c-0.8,1.4-2.1,2.6-2.7,3.5c2.9-0.4,6.2-1,9.5-1.1
		c19.8-1.1,39.6-2.1,59.4-3c14.5-0.6,29-1.1,43.5-1.4c22.8-0.4,45.7-0.7,68.5-1c11.5-0.2,23-0.2,34.5-0.3
		c12.7-0.1,25.5-0.5,38.2-0.1c19.1,0.7,38.2,1.9,57.2,3.2c17.9,1.2,35.9,2.8,53.8,4.2C503.1,137.2,504.6,137.1,506.1,137.1
		c0.7,0.7,1.4,1.5,2.1,2.1c8.4,7.6,17.1,14.9,25.1,22.9c9.4,9.4,17.2,20,22.4,32.4c3.5,8.3,5.4,16.8,3.6,25.8
		c-0.3,1.7,0.1,2.4,1.3,3.4c5.6,4.3,9.5,9.8,11.4,16.5c4.3,14.8,1.2,29-4.3,42.9c-0.2,0.5-1,1-1.6,1c-9.8,0.7-19.6,1-29.3,2
		c-14.9,1.5-29.8,3.5-44.7,5.1c-7.1,0.8-14.2,1.3-21.3,1.6c-2.2,0.1-4.4-0.8-6.6-1.5c-1.8-0.6-2.6-2-2.4-4c1.2-19,2.3-38,3.5-57
		c0.2-2.6-0.1-5-1.6-7.2c-5-7.4-11.4-13.1-20.2-15.4c-11.6-3-23.5-3.6-35.4-4.3c-13-0.8-26.1-1-39.1-1.3
		c-25.8-0.6-51.5-1.5-77.3-1.4c-24.1,0.1-48.3,1.5-72.4,2c-17.7,0.3-35.2,2-52.5,6.1c-8.4,2-14.1,7.2-18.2,14.5
		c-0.3,0.6-0.5,1.4-0.4,2c0.9,16.6,1.8,33.2,2.7,49.7c0.3,4.8,0.5,9.6,0.8,14.5c-3.4,0-6.5,0-9.6,0c-22.9-0.3-45.9-1-68.6-4.2
		c-7-1-13.9-2.8-20.9-4.4c-0.9-0.2-2.1-1.2-2.3-2c-2.8-12.1-4.6-24.2-2.2-36.6c1.5-7.9,4.7-15,12-19.4c1.4-0.8,1.5-1.6,1.5-3.1
		c0-4.1-0.3-8.3,0.5-12.3c1.6-8.7,6.3-15.9,11.7-22.6c9.6-12,21.5-21.5,34-30.3c4-2.8,8-5.4,12.1-8.1c-3.5,1.1-6.8,2.5-10.1,3.9
		c-19,7.7-35.9,18.7-51.1,32.3c-10.2,9.1-18,19.7-21.6,33.3c-5.5,20.9-5.2,41.6-0.7,62.6c0.6,2.9,0,3.8-3,3.9
		c-0.9,0-1.8-0.1-2.7,0.1c-0.7,0.1-1.6,0.5-2.1,1c-2.2,2.3-2.1,8.6-0.1,11c2.5,2.8,3,6.1,3.1,9.6c0.2,8.2,0,9.2,8.1,11.7
		c0.7,0.2,1.4,0.3,2.2,0.3c1.8,0.2,3.6,0.2,5.3,0.6c30.9,6.1,62.2,9.6,93.6,13c5.1,0.5,10.3,1.2,15.4,1.8c0,1.6,0,3,0,4.5
		c-0.8,0-1.3,0-1.9,0c-3.3-0.1-6.6-0.2-10-0.3c-24.9-1.1-49.7-2.8-74.3-6.5c-10.3-1.6-20.6-3.4-30.4-7.3c-5.6-2.2-10.3-5.3-9.7-13.1
		c-2.9,7-2.8,13.9-0.2,18.3c0.6,1.1,1,2.4,1.2,3.6c0.5,4.5,0.7,9.1,1.4,13.5c2.8,18.7,8.9,36.3,19.3,52.2
		c5.7,8.7,12.3,16.5,21.8,21.3c9.3,4.7,19,8,29.3,9.2c11.3,1.4,22.7,2.2,34.1,2.8c22.8,1.1,45.6,1.9,68.5,2.7
		c23.5,0.8,47,1.5,70.4,2.2c15.4,0.4,30.8,0.7,46.2,1c24.7,0.5,49.4,1,74.1,1.5c13.4,0.3,26.7,0.5,40.1,0.8
		c9.2,0.1,18.5,0.8,27.7,0.1c15.3-1.1,30.5-2.5,45.7-4.7c11.3-1.6,22.4-4.5,33.4-7.1c9.4-2.2,17.1-7.9,25-13
		c6.1-4,10.1-10.2,13.7-16.5c7.1-12.9,10.9-26.8,13-41.2c2-13.1,3.7-26.3,5.2-39.5c1.6-15,3.8-29.9,2.7-45c-1.1-16-2.8-32-6.9-47.5
		c-2.2-8.3-4.8-16.6-10.4-23.3c-10.8-12.9-22.6-24.8-35.5-35.6C536.6,153.4,522.4,143.6,506.1,137.1z M62.9,221.2
		c0.6,0.1,1.1,0.1,1.6,0.1c16.4,0.4,32.7,0.8,49.1,1.4c10.1,0.4,20.2,0.9,30.3,1.8c2.6,0.2,3.6-0.5,4.8-2.5
		c3.8-6.5,9-11.4,16.5-13.5c3.2-0.9,6.5-1.5,9.7-2.2c12.7-2.6,25.6-3.9,38.6-4.2c18.1-0.4,36.1-1.6,54.1-1.9
		c13.9-0.3,27.9,0.1,41.8,0.3c26.1,0.4,52.2,0.9,78.3,1.3c15.5,0.2,30.9,1.2,46.3,3.2c7.8,1,15.3,2.6,21.6,7.8
		c4.5,3.8,8.7,7.8,10.7,13.1c6.1-0.6,11.9-1.6,17.8-1.8c24-0.8,48.1-1.4,72.1-2c1.4,0,2.2-0.4,2.3-1.8c0.1-4,0.7-8.1,0.2-12.1
		c-1.2-9.5-5.3-18-10.5-25.9c-11.1-17.2-26-30.8-41.9-43.3c-0.5-0.4-1.3-0.7-2-0.7c-7.6-0.7-15.2-1.4-22.8-1.9
		c-16.5-1.2-33-2.6-49.4-3.5c-17-1-34-2.1-51-2.2c-27.3-0.2-54.6,0.4-81.9,0.8c-22.5,0.3-45,0.6-67.6,1.1
		c-12.9,0.3-25.9,1.2-38.8,1.8c-15.6,0.7-31.2,1.4-46.8,2.2c-2.8,0.1-5.9,0.3-8.3,1.5c-21,11.2-40.7,24.1-57.3,41.3
		c-7,7.3-13,15.3-16.3,25C62.2,209.8,61.5,215.4,62.9,221.2z M572.5,263.3c0.2-2.7,0.5-5.5,0.6-8.2c0.2-10.3-2.1-19.8-9.5-27.5
		c-4.6-4.8-10-6.1-16.7-4.1c0.9,0.4,1.6,0.7,2.3,1c13.8,6.3,17.4,23.4,7.1,34.3c-5.7,6-12.9,8.1-21.1,6.9c-9.5-1.3-17.3-9-18.9-18.7
		c-1.4-8.8,3.6-17.9,12.1-22.2c0.8-0.4,1.5-0.8,2.3-1.1c0-0.2-0.1-0.4-0.1-0.6c-10.7,0.4-21.5,0.7-32.2,1.1
		c5.7,2.8,10,6.7,11.9,12.7c2,6.2,0.9,11.9-3,17c-6.6,8.6-19.5,9.8-27.4,2.6c-4-3.7-6.2-8.2-6.3-13.7c-0.1-7.6,3.6-13,10.2-17
		c-0.6-0.1-0.9-0.2-1.1-0.1c-3.5,0.3-6.9,0.7-10.4,1c-5.9,0.5-5.9,0.5-6.2,6.5c-1,17.7-2,35.4-3.1,53.1c-0.2,3.1,0.3,3.8,3.2,4.7
		c1,0.3,2,0.5,3.8,0.9c0-5.6-0.2-10.8,0-16.1c0.3-7-0.5-5.6,5.8-5.7c3.7-0.1,7.4,0,11.1,0c0.4-3.3,0.4-3.4,4.1-3.5
		c11.1-0.2,22.2-0.4,33.3-0.4c1.7,0,3.5,0.7,5.2,1.4c2.9,1.1,5.7,2.8,8.7,3.6c9.3,2.7,17.2,0.5,23.6-7c0.7-0.8,2-1.4,3.1-1.4
		C567.3,262.7,569.7,263.1,572.5,263.3z M562.2,418c8.8,1.2,16.6,0.2,22.8-5.6c4.2-4,7.9-8.6,11.1-13.4c12.3-19,16.8-40.3,17.1-62.6
		c0.2-19.5-3.2-38.5-8.6-57.2c-0.1-0.4-0.4-0.8-0.5-1c-0.7,8.9-1.2,17.9-2.2,26.8c-1.7,15.2-3.6,30.4-5.6,45.6
		c-1.6,12.6-4.3,25-9.2,36.9C582,399.8,575.2,410.9,562.2,418z M48.1,260.7c1.4,0.1,2.3,0.2,3.2,0.1c3.5,0,6.8,0.3,8.9,3.7
		c0.5,0.9,1.5,1.5,2.3,2.1c9.1,7.4,17.7,7.2,26.4-0.5c0.7-0.6,1.9-0.9,2.8-0.9c11.8,0.4,23.6,0.9,35.4,1.3c1.7,0.1,3.1,0.3,2.9,2.2
		c3.7,0,7.3-0.3,10.8,0.1c6.1,0.6,5.1-0.4,5.2,5.5c0,1.9,0,3.9,0,5.8c0,2.9,0,5.8,0,8.7c1.7,0,3.1,0,4.8,0
		c-1.2-21-2.4-41.8-3.6-62.9c-4.4-0.3-8.6-0.5-12.9-0.8c10,5.8,12.2,15.2,10,22.8c-2.4,8.1-10.1,13.5-18.6,13.3
		c-8.4-0.2-15.9-6.3-17.8-14.4c-2.1-9.4,1.9-16.5,13.3-22.6c-10.8-0.5-21.2-1.1-31.6-1.6c0.7,0.9,1.5,1.2,2.3,1.6
		c10.3,4.9,15.3,16.3,11.4,26.6c-3.2,8.6-9.9,13.1-18.8,14.5c-11,1.7-22.3-5.5-25.2-16.1c-2.9-10.6,2.7-21.4,13.4-25.7
		c0.7-0.3,1.3-0.6,2-0.9c-2.2-0.4-4.4-0.3-6.5-0.4c-6-0.4-10.3,2.5-13.5,7.1c-1.4,2-2.7,4.3-3.6,6.6c-2.3,5.5-3,11.4-3,17.4
		C48.1,255.8,48.1,258.2,48.1,260.7z M487.7,290.8c14.4-1.7,28.3-3.4,42.3-4.8c11.8-1.2,23.6-1.8,35.3-2.8c0.8-0.1,1.9-0.9,2.1-1.7
		c1.6-4.9,3-9.9,4.4-14.9c0.2-0.7,0.2-1.5,0.3-2.5c-1.8-0.3-3.4-0.7-5-0.9c-2.3-0.2-4,0.3-5.7,2.3c-4.3,5.1-10,7.5-16.7,7.4
		c-5.8-0.1-11-2.3-16.1-5c-1.2-0.7-2.7-1.1-4.1-1.1c-7.9,0-15.7,0.1-23.6,0.2c-4.3,0.1-8.7,0.3-13.3,0.4
		C487.7,275.4,487.7,283,487.7,290.8z M129.3,288.7c0-6.4-0.1-12.4,0.1-18.3c0.1-2.3-0.7-3.1-2.9-3.2c-11.3-0.4-22.7-0.8-34-1.3
		c-1.6-0.1-2.7,0.4-3.9,1.4c-5.3,4.9-11.4,6.7-18.4,4.5c-4.3-1.3-8.1-3.7-10.8-7.1c-3-3.8-6.9-2.9-11.3-3.4c1,5.7,2,10.8,2.8,16
		c0.3,2,1.2,3,3.1,3.4c5.5,1.2,10.9,2.8,16.4,3.4c13.2,1.5,26.4,2.6,39.6,3.7C116.3,288.4,122.7,288.4,129.3,288.7z M62.7,241.6
		c0,10.1,8.8,18.6,19.5,18.7c10.7,0.1,19.7-8.4,19.7-18.6c0-10.2-8.7-18.5-19.5-18.6C71.6,223,62.7,231.3,62.7,241.6z M540.2,260.5
		c10.9,0,19.6-8.2,19.7-18.3c0.1-10.3-8.8-18.8-19.6-18.8c-10.8,0-19.8,8.5-19.8,18.7C520.6,252.2,529.4,260.5,540.2,260.5z
		 M476.7,241.2c0,8.7,7,15.8,15.9,16c8.7,0.1,16.2-7.3,16.2-16c0-8.6-7.4-15.9-16.1-15.9C484,225.3,476.7,232.5,476.7,241.2z
		 M110.8,241.4c0,8.7,7.2,15.8,16,15.9c8.7,0,16-7.3,16.1-15.9c0-8.6-7.3-15.9-16-16C118,225.3,110.8,232.5,110.8,241.4z M31.2,310
		c-0.5,3.6,0.6,6.6,3.7,8.3c3.3,1.8,6.7,3.6,10.3,4.7c16.7,5.2,34,7.1,51.4,8.7c14.9,1.4,29.9,2.3,44.8,3.2c4.7,0.3,9.5,0,14.3,0
		c0-0.7,0-1.6,0-2.6c-11.8-1.4-23.5-2.7-35.1-4c-11.6-1.4-23.2-2.6-34.7-4.2c-14.9-2.1-29.7-4.5-44.6-7.1
		C37.1,316.3,32.3,315.6,31.2,310z M470.7,271.2c0,6.8,0,13.7,0,20.7c5.4-0.3,10.8-0.6,16.1-0.9c0-6.7,0-13.1,0-19.8
		C481.5,271.2,476.3,271.2,470.7,271.2z M145.5,269.7c-4.8,0-9.4,0-14,0.1c-0.5,0-1.3,0.8-1.3,1.3c-0.1,5.8-0.1,11.6-0.1,17.6
		c5.4,0,10.2,0,15.2,0c0.1-0.6,0.2-1.1,0.2-1.5C145.5,281.5,145.5,275.9,145.5,269.7z M528.2,226.1c-9.8,4.8-13.9,16.8-9.4,26.3
		c5.1,11,18.3,15.8,29.7,10.8c9.7-4.2,15.5-15.5,12.1-23.8c-1,12.4-6,19.2-15.6,21.2c-9.2,2-18.6-2.1-22.8-10
		C517.8,242.6,519.6,234.5,528.2,226.1z M101.8,235.3c2.2,11.4-1.6,19.6-10.8,23.7c-8.9,4-19.5,1.4-25.2-6.2
		c-5.9-7.8-5-16.5,2.9-25.8c-8.2,3.9-11.8,16.3-7.3,25.6c5.3,10.9,19.4,15.4,30.7,9.7C102.3,257.2,106.9,245,101.8,235.3z
		 M508.9,236c1.2,10.3-1.6,16.5-8.6,20c-6.2,3.1-14,2.2-18.8-2.6c-7.6-7.6-7.1-15.7-1-24c-7.1,6.1-8.2,16.1-2.7,23.7
		c5.3,7.4,15.6,9.5,23.7,4.9C509.1,253.6,512.5,243.9,508.9,236z M142.9,236.4c1.6,9.3-1.2,16.2-9.6,20c-6.4,2.9-12.7,1.9-17.8-2.9
		c-7.5-7.2-7.1-15.3-1.4-23.5c-6.8,6-7.6,16.2-2,23.6c5.6,7.4,16.1,9.2,24,4.2C143.3,253.1,146.6,243.4,142.9,236.4z"/>
	<path class="st0" d="M506.1,137.1c16.3,6.6,30.5,16.4,43.9,27.5c12.9,10.8,24.7,22.7,35.5,35.6c5.6,6.8,8.2,15,10.4,23.3
		c4.1,15.6,5.8,31.5,6.9,47.5c1.1,15.2-1.1,30.1-2.7,45c-1.4,13.2-3.2,26.4-5.2,39.5c-2.2,14.4-5.9,28.4-13,41.2
		c-3.5,6.4-7.6,12.5-13.7,16.5c-7.9,5.1-15.6,10.8-25,13c-11.1,2.6-22.2,5.5-33.4,7.1c-15.1,2.2-30.4,3.6-45.7,4.7
		c-9.2,0.6-18.5,0-27.7-0.1c-13.4-0.2-26.7-0.5-40.1-0.8c-24.7-0.5-49.4-1-74.1-1.5c-15.4-0.3-30.8-0.6-46.2-1
		c-23.5-0.6-47-1.4-70.4-2.2c-22.8-0.8-45.7-1.6-68.5-2.7c-11.4-0.6-22.8-1.4-34.1-2.8c-10.3-1.2-20-4.6-29.3-9.2
		c-9.6-4.8-16.1-12.6-21.8-21.3c-10.4-15.9-16.5-33.5-19.3-52.2c-0.7-4.5-0.8-9-1.4-13.5c-0.1-1.2-0.5-2.5-1.2-3.6
		c-2.6-4.5-2.8-11.3,0.2-18.3c-0.6,7.9,4.1,10.9,9.7,13.1c9.8,3.9,20.1,5.7,30.4,7.3c24.6,3.8,49.4,5.4,74.3,6.5
		c3.3,0.1,6.6,0.2,10,0.3c0.6,0,1.1,0,1.9,0c0-1.5,0-2.9,0-4.5c-5.1-0.6-10.3-1.3-15.4-1.8c-31.3-3.3-62.6-6.9-93.6-13
		c-1.7-0.3-3.5-0.4-5.3-0.6c-0.7-0.1-1.5-0.1-2.2-0.3c-8.1-2.4-7.9-3.5-8.1-11.7c-0.1-3.6-0.7-6.9-3.1-9.6c-2.1-2.3-2.1-8.6,0.1-11
		c0.5-0.5,1.3-0.9,2.1-1c0.9-0.2,1.8,0,2.7-0.1c3-0.2,3.6-1,3-3.9c-4.5-20.9-4.8-41.7,0.7-62.6c3.6-13.6,11.4-24.2,21.6-33.3
		c15.2-13.6,32.1-24.6,51.1-32.3c3.3-1.3,6.6-2.8,10.1-3.9c-4,2.7-8.1,5.3-12.1,8.1c-12.5,8.8-24.4,18.3-34,30.3
		c-5.4,6.8-10.1,14-11.7,22.6c-0.7,4-0.5,8.2-0.5,12.3c0,1.4-0.1,2.3-1.5,3.1c-7.3,4.4-10.5,11.5-12,19.4
		c-2.4,12.4-0.6,24.5,2.2,36.6c0.2,0.8,1.4,1.8,2.3,2c6.9,1.6,13.9,3.4,20.9,4.4c22.7,3.2,45.7,3.9,68.6,4.2c3.1,0,6.1,0,9.6,0
		c-0.3-4.9-0.5-9.7-0.8-14.5c-0.9-16.6-1.8-33.2-2.7-49.7c0-0.7,0.1-1.5,0.4-2c4.1-7.3,9.8-12.5,18.2-14.5
		c17.3-4.1,34.8-5.8,52.5-6.1c24.1-0.4,48.3-1.9,72.4-2c25.8-0.1,51.5,0.8,77.3,1.4c13,0.3,26.1,0.5,39.1,1.3
		c11.9,0.7,23.8,1.3,35.4,4.3c8.8,2.3,15.2,8,20.2,15.4c1.5,2.2,1.7,4.5,1.6,7.2c-1.2,19-2.3,38-3.5,57c-0.1,2,0.6,3.4,2.4,4
		c2.1,0.7,4.4,1.5,6.6,1.5c7.1-0.3,14.2-0.8,21.3-1.6c14.9-1.6,29.8-3.6,44.7-5.1c9.7-1,19.5-1.3,29.3-2c0.6,0,1.4-0.6,1.6-1
		c5.4-13.9,8.6-28.1,4.3-42.9c-2-6.7-5.8-12.3-11.4-16.5c-1.2-0.9-1.7-1.7-1.3-3.4c1.8-9-0.2-17.5-3.6-25.8
		c-5.2-12.4-13-23-22.4-32.4c-8-8-16.7-15.3-25.1-22.9C507.4,138.6,506.8,137.8,506.1,137.1L506.1,137.1z M366.7,378.6
		c1.1-0.1,1.9-0.2,2.7-0.2c11.4-0.7,22.7-2.3,33.8-5.2c12.7-3.3,22.4-10.1,28.6-21.8c7.6-14.5,12.8-29.8,15.6-45.8
		c2.1-12.3,3-24.8,3.9-37.2c0.7-9,0.7-18,0.6-27c-0.1-5.7-2-10.9-7.8-13.1c-3.8-1.4-7.9-2.6-12-2.9c-15.6-1.2-31.2-2.3-46.8-2.8
		c-20.2-0.6-40.5-0.5-60.8-0.8c-1.8,0-3.6-0.2-5.3-0.6c-11.2-2.4-22.3-2.6-33.4,0.6c-0.7,0.2-1.4,0.3-2.1,0.3c-20,0.4-40,0.4-60,1.2
		c-17,0.7-33.9,2.2-50.9,3.3c-5.7,0.4-9.8,3.3-11.9,8.3c-1.8,4.2-2.9,8.8-3.6,13.3c-1.1,7.4,0.1,14.8,0.8,22.3
		c2,22.8,6.8,45.1,12.8,67.2c4.1,15,13.4,24.9,27.2,30.9c5.2,2.3,10.7,4.3,16.3,5.5c7.6,1.8,15.4,2.7,23.5,4.1c0,0.5,0,1.5,0,2.4
		c0,10.6-0.1,21.2,0,31.9c0.1,8.7,5.2,13.7,13.8,13.7c7.5,0,15.1,0,22.6,0c26.3,0,52.7,0,79,0c7.6,0,12.6-4.5,13.3-12
		c0.3-2.8,0.1-5.7,0.2-8.5C366.7,396.7,366.7,387.8,366.7,378.6z M512.1,395.4c1,7.3,3.9,11.2,9.7,12.7c9.2,2.4,19.8-4.8,21-14.3
		c1-7.7-3.5-13.8-11.2-14.9c-7.2-1-14.8,3.5-18.1,10.5c-0.4,0.9-1.5,2-2.5,2.1c-15.8,2.7-31.7,4.8-47.7,5.5
		c-4.7,0.2-9.5,0.4-14.2,0.6c0,1.2,0,2.2,0,3.7C470.2,399.4,491.1,397.4,512.1,395.4z M167.6,394.6c-0.4-0.1-0.7-0.2-1-0.2
		c-20.4-0.6-40.4-3.7-60.4-7.6c-1.6-0.3-2.6-0.9-3.4-2.5c-2.1-4.3-5.7-7.1-10.2-8.5c-5.5-1.6-10.7-0.7-14.8,3.5
		c-3.8,3.9-4.4,8.7-2.5,13.8c2.7,7.3,10.7,11.9,18.3,10.5c5-0.9,8.6-3.7,10.2-8.6c0.5-1.6,0.6-3.3,0.8-4.6
		c20.9,2.6,41.8,5.3,62.9,7.9C167.6,396.7,167.6,395.7,167.6,394.6z M453.4,338.1c1,0,1.8,0,2.6,0c14.5-1,28.9-1.7,43.4-3.1
		c28.3-2.6,56.4-6.7,84.3-12.4c2.8-0.6,5-2,6.5-4.2c0.6-0.9,0.7-2.2,1.2-3.7c-2.5,1.2-4.2,2.3-6.1,2.8c-6.3,1.7-12.6,3.6-19.1,4.5
		c-15.6,2.3-31.3,4.5-47,6c-20.7,2-41.5,3.3-62.2,4.8c-3.9,0.3-3.9,0.2-3.7,4C453.2,337.2,453.3,337.5,453.4,338.1z M438.9,427.2
		c1-0.1,1.9-0.1,2.8-0.2c13.3-1.4,26.6-2.4,39.8-4.3c15.5-2.2,31-5,46.4-7.8c6.3-1.2,12.6-3.1,18.1-6.7c2.4-1.5,2.3-1.8,0.4-4.1
		c-10.4,5.5-21.6,8.4-33.3,9.6c-21,2.1-42,4.5-63,6.7c-3.7,0.4-7.4,0.6-11.2,0.9C438.9,423.3,438.9,425.1,438.9,427.2z M68,399
		c-1.7,2.7-1.8,3,0.7,4.4c2.7,1.5,5.5,2.8,8.4,3.8c11.5,3.9,23.5,6.1,35.5,7.7c15.3,2.1,30.7,3.9,46,5.8c5.6,0.7,11.2,1,16.9,1.5
		c0-2.1,0-4,0-5.8c-6.5-0.5-12.8-0.9-19.1-1.6c-15.8-1.6-31.5-3.5-47.3-5.1C94.9,408.2,80.8,406.4,68,399z M104,401.3
		c22.7,2.7,45.3,5.3,67.9,8c0-1.7,0-2.9,0-3.6c-22.6-2.6-44.9-5.2-67.4-7.8C104.3,398.8,104.2,399.7,104,401.3z M511.2,402.7
		c-22.6,2.1-45.1,4.1-67.7,6.2c0,0.9,0.1,2.1,0.2,3.4c22.9-2,45.5-3.5,68-6.6C511.4,404.5,511.3,403.6,511.2,402.7z"/>
	<path class="st0" d="M62.9,221.2c-1.3-5.8-0.7-11.5,1.2-17c3.3-9.7,9.3-17.7,16.3-25c16.6-17.2,36.4-30.2,57.3-41.3
		c2.4-1.3,5.5-1.4,8.3-1.5c15.6-0.8,31.2-1.5,46.8-2.2c12.9-0.6,25.9-1.5,38.8-1.8c22.5-0.6,45-0.8,67.6-1.1
		c27.3-0.4,54.6-0.9,81.9-0.8c17,0.1,34,1.2,51,2.2c16.5,1,33,2.3,49.4,3.5c7.6,0.6,15.2,1.3,22.8,1.9c0.7,0.1,1.5,0.3,2,0.7
		c15.9,12.5,30.8,26.1,41.9,43.3c5.1,8,9.3,16.4,10.5,25.9c0.5,4,0,8-0.2,12.1c0,1.4-0.9,1.7-2.3,1.8c-24,0.6-48.1,1.2-72.1,2
		c-5.9,0.2-11.7,1.2-17.8,1.8c-2.1-5.3-6.2-9.3-10.7-13.1c-6.3-5.3-13.8-6.8-21.6-7.8c-15.4-2-30.8-2.9-46.3-3.2
		c-26.1-0.4-52.2-0.9-78.3-1.3c-13.9-0.2-27.9-0.6-41.8-0.3c-18.1,0.4-36.1,1.6-54.1,1.9c-13,0.3-25.9,1.6-38.6,4.2
		c-3.3,0.7-6.5,1.3-9.7,2.2c-7.5,2-12.7,6.9-16.5,13.5c-1.2,2.1-2.2,2.8-4.8,2.5c-10.1-0.8-20.2-1.4-30.3-1.8
		c-16.4-0.6-32.7-0.9-49.1-1.4C64,221.4,63.5,221.3,62.9,221.2z M550.6,211.3c-0.1-0.6,0-1-0.1-1.3c-2.4-8.9-6.6-16.9-11.9-24.3
		c-14.2-19.6-32.6-34.4-52.8-47.2c-0.7-0.5-2-0.5-2.9-0.3c-7.2,1.7-14.4,3.7-21.7,5.3c-39.2,8.5-79,11.7-119,11.9
		c-16.6,0.1-33.2-0.2-49.8-1.2c-22.6-1.4-45.3-3-67.8-5.6c-23.5-2.8-46.8-6.9-70.1-10.4c-1.2-0.2-2.6,0.1-3.6,0.6
		c-14.5,8.1-28.2,17.2-40.9,27.9c-9.5,8-18.3,16.7-24.7,27.5c-3,5-5.2,10.3-5.9,15.7c21.7-7.3,43.7-3,66.1-1.2c-0.7-1.6-1-3-1.7-4.2
		c-4.6-7.6-6.3-15.7-4.7-24.5c2.6-14.1,10.6-25.2,20.6-35c0.6-0.6,1.9-0.7,2.8-0.5c29.5,6.6,59.3,11.5,89.3,14.7
		c23.5,2.5,47.1,3.9,70.8,4.2c23,0.3,46-0.2,68.9-2.4c16.1-1.5,32.2-3.2,48.2-5.6c13.6-2,27-5.3,40.5-7.9c0.8-0.1,2,0.1,2.5,0.7
		c5.8,6.8,9.2,14.6,9.5,23.6c0.4,9.7-2.3,18.6-6.9,27c-2.4,4.4-5.2,8.4-7.9,12.6C501.7,203.6,526,206.3,550.6,211.3z"/>
	<path class="st0" d="M506.1,137c-1.5,0-3.1,0.2-4.6,0.1c-17.9-1.4-35.8-3-53.8-4.2c-19.1-1.3-38.2-2.5-57.2-3.2
		c-12.7-0.5-25.4,0-38.2,0.1c-11.5,0.1-23,0.2-34.5,0.3c-22.8,0.3-45.7,0.6-68.5,1c-14.5,0.3-29,0.7-43.5,1.4
		c-19.8,0.9-39.6,1.9-59.4,3c-3.3,0.2-6.7,0.8-9.5,1.1c0.7-0.8,1.9-2,2.7-3.5c1.1-1.8,0.5-3-1.5-3.3c-2.9-0.4-5.8-0.6-8.7-0.8
		c-1.9-0.2-3.9-0.2-5.8-0.5c-7-1.2-10.9-5.8-10.7-12.6c0.2-7.4,4.9-13.4,11.5-14.2c3.7-0.4,7.4-0.9,11.1-0.6
		c9,0.8,13.5,6.5,12.6,15.6c-0.1,0.9-0.2,1.9-0.3,2.8c0.2,0.1,0.4,0.2,0.6,0.2c0.4-0.7,0.9-1.3,1.2-2C161,96.6,176,78.2,192.9,61.2
		c7.5-7.5,16.7-11.4,27-12.5c16.6-1.7,33.2-3.5,49.8-4.4c22.5-1.2,45-1.7,67.5-2c16.4-0.2,32.9-0.1,49.3,0.6
		c18.3,0.8,36.4,3.7,54.1,8.6c6.3,1.7,11.3,5.1,15.6,9.8c11.2,12.3,20.3,26,29.2,40c3.7,5.8,7.2,11.7,10.8,17.6
		c1.4,2.3,2,2.4,4.4,0.7c-0.7-2.4-1.5-4.7-2-7.2c-1.5-7.5,1.7-12.2,9.3-13.2c6.4-0.9,12.8-0.1,18.9,1.8c7,2.2,10,7.6,9.1,14.9
		c-0.7,5.4-3.1,9-8.8,10c-6.3,1-12.6,2.1-18.9,3.1c-1.4,0.2-2.9,0.3-4.5,0.5C504.2,132.3,503.8,135.1,506.1,137
		C506.1,137.1,506.1,137,506.1,137z M495.9,135.6c-0.3-1.2-0.3-2.2-0.7-3c-2.2-4.9-4.1-9.9-6.8-14.5c-12.3-21.1-27.5-40.2-43-59.1
		c-0.6-0.7-1.7-1.3-2.6-1.5c-4.8-1.1-9.6-2.2-14.5-3c-19.4-2.9-39-3.7-58.6-3.5c-24.4,0.2-48.8,0.5-73.1,1.8
		c-28.7,1.5-57.4,3.7-86,6.3c-15.4,1.4-12.8-1.1-23.9,13c-15.4,19.5-28.6,40.7-41.8,61.7c-0.1,0.2-0.1,0.6-0.2,0.9
		c4.7-0.5,9.3-1.1,13.9-1.4c11.4-0.8,22.8-1.6,34.2-2.2c13.1-0.7,26.2-1.8,39.3-1.9c35.3-0.3,70.7-0.2,106-0.2
		c26.9,0,53.8-0.3,80.7,0.6c19.8,0.6,39.6,2.9,59.3,4.5C483.8,134.6,489.7,135.1,495.9,135.6z"/>
	<path class="st0" d="M572.5,263.3c-2.9-0.2-5.3-0.5-7.7-0.4c-1.1,0-2.4,0.6-3.1,1.4c-6.4,7.5-14.3,9.7-23.6,7
		c-3-0.9-5.8-2.5-8.7-3.6c-1.7-0.6-3.5-1.4-5.2-1.4c-11.1,0-22.2,0.2-33.3,0.4c-3.7,0.1-3.7,0.1-4.1,3.5c-3.7,0-7.4-0.1-11.1,0
		c-6.3,0.1-5.5-1.3-5.8,5.7c-0.2,5.2,0,10.5,0,16.1c-1.8-0.4-2.8-0.6-3.8-0.9c-3-1-3.4-1.7-3.2-4.7c1-17.7,2.1-35.4,3.1-53.1
		c0.3-6,0.3-6,6.2-6.5c3.5-0.3,6.9-0.7,10.4-1c0.2,0,0.5,0.1,1.1,0.1c-6.5,4-10.2,9.4-10.2,17c0,5.5,2.2,10,6.3,13.7
		c7.9,7.2,20.8,6,27.4-2.6c3.9-5.1,4.9-10.8,3-17c-1.9-6-6.2-9.9-11.9-12.7c10.7-0.4,21.5-0.7,32.2-1.1c0,0.2,0.1,0.4,0.1,0.6
		c-0.8,0.4-1.5,0.8-2.3,1.1c-8.5,4.2-13.5,13.4-12.1,22.2c1.6,9.7,9.3,17.3,18.9,18.7c8.2,1.1,15.4-0.9,21.1-6.9
		c10.3-10.8,6.7-28-7.1-34.3c-0.7-0.3-1.5-0.6-2.3-1c6.7-2,12.1-0.7,16.7,4.1c7.4,7.7,9.7,17.2,9.5,27.5
		C573.1,257.8,572.7,260.5,572.5,263.3z"/>
	<path class="st0" d="M562.2,418c13-7.1,19.7-18.3,24.9-30.7c4.9-11.8,7.6-24.2,9.2-36.9c2-15.2,3.9-30.4,5.6-45.6
		c1-8.9,1.5-17.9,2.2-26.8c0.1,0.2,0.4,0.6,0.5,1c5.4,18.7,8.8,37.7,8.6,57.2c-0.3,22.3-4.8,43.6-17.1,62.6
		c-3.1,4.9-6.9,9.5-11.1,13.4C578.9,418.3,571.1,419.3,562.2,418z"/>
	<path class="st0" d="M48.1,260.7c0-2.5,0-4.9,0-7.3c0-6,0.7-11.8,3-17.4c0.9-2.3,2.2-4.5,3.6-6.6c3.3-4.6,7.6-7.5,13.5-7.1
		c2.1,0.1,4.2,0,6.5,0.4c-0.7,0.3-1.3,0.6-2,0.9c-10.7,4.4-16.3,15.1-13.4,25.7c2.9,10.6,14.2,17.8,25.2,16.1
		c8.9-1.4,15.6-5.9,18.8-14.5c3.9-10.3-1.1-21.7-11.4-26.6c-0.8-0.4-1.6-0.7-2.3-1.6c10.4,0.5,20.8,1,31.6,1.6
		c-11.4,6.1-15.4,13.2-13.3,22.6c1.8,8.1,9.3,14.1,17.8,14.4c8.5,0.2,16.2-5.2,18.6-13.3c2.3-7.6,0-17-10-22.8
		c4.2,0.3,8.5,0.5,12.9,0.8c1.2,21.1,2.4,41.9,3.6,62.9c-1.7,0-3.1,0-4.8,0c0-2.9,0-5.8,0-8.7c0-1.9,0-3.9,0-5.8
		c-0.1-5.9,1-4.9-5.2-5.5c-3.5-0.4-7.1-0.1-10.8-0.1c0.1-1.9-1.2-2.1-2.9-2.2c-11.8-0.4-23.6-0.9-35.4-1.3c-0.9,0-2.1,0.3-2.8,0.9
		c-8.8,7.7-17.4,7.9-26.4,0.5c-0.8-0.7-1.8-1.3-2.3-2.1c-2.1-3.4-5.4-3.7-8.9-3.7C50.4,260.9,49.5,260.8,48.1,260.7z"/>
	<path class="st0" d="M487.7,290.8c0-7.8,0-15.3,0-23.3c4.6-0.1,8.9-0.3,13.3-0.4c7.9-0.1,15.7-0.3,23.6-0.2c1.4,0,2.9,0.4,4.1,1.1
		c5,2.7,10.2,4.9,16.1,5c6.7,0.1,12.4-2.3,16.7-7.4c1.7-2,3.4-2.5,5.7-2.3c1.6,0.2,3.2,0.6,5,0.9c-0.1,0.9-0.1,1.7-0.3,2.5
		c-1.4,5-2.8,9.9-4.4,14.9c-0.2,0.7-1.3,1.6-2.1,1.7c-11.8,1-23.6,1.6-35.3,2.8C516,287.3,502.1,289.1,487.7,290.8z"/>
	<path class="st0" d="M129.3,288.7c-6.6-0.3-13-0.3-19.4-0.8c-13.2-1.1-26.5-2.2-39.6-3.7c-5.5-0.6-10.9-2.3-16.4-3.4
		c-1.9-0.4-2.8-1.4-3.1-3.4c-0.7-5.2-1.8-10.3-2.8-16c4.4,0.5,8.3-0.4,11.3,3.4c2.7,3.4,6.6,5.8,10.8,7.1c7,2.2,13.1,0.3,18.4-4.5
		c1.2-1.1,2.3-1.5,3.9-1.4c11.3,0.5,22.7,1,34,1.3c2.3,0.1,3,0.9,2.9,3.2C129.2,276.3,129.3,282.3,129.3,288.7z"/>
	<path class="st0" d="M62.7,241.6c0-10.3,8.9-18.6,19.8-18.6c10.8,0.1,19.5,8.4,19.5,18.6c0,10.2-9.1,18.8-19.7,18.6
		C71.5,260.2,62.7,251.7,62.7,241.6z"/>
	<path class="st0" d="M540.2,260.5c-10.8,0-19.6-8.3-19.6-18.4c0-10.2,9-18.7,19.8-18.7c10.8,0,19.6,8.5,19.6,18.8
		C559.8,252.3,551,260.5,540.2,260.5z"/>
	<path class="st0" d="M476.7,241.2c0-8.7,7.3-15.9,16-15.9c8.7,0,16,7.3,16.1,15.9c0,8.7-7.5,16.1-16.2,16
		C483.7,257.1,476.7,249.9,476.7,241.2z"/>
	<path class="st0" d="M110.8,241.4c0-8.9,7.3-16.1,16.1-16c8.7,0.1,16,7.4,16,16c0,8.6-7.4,15.9-16.1,15.9
		C118,257.2,110.8,250.1,110.8,241.4z"/>
	<path class="st0" d="M31.2,310c1.1,5.6,5.9,6.3,10.1,7c14.8,2.5,29.7,4.9,44.6,7.1c11.5,1.7,23.1,2.9,34.7,4.2
		c11.6,1.4,23.3,2.7,35.1,4c0,1,0,1.9,0,2.6c-4.9,0-9.6,0.2-14.3,0c-14.9-0.9-29.9-1.8-44.8-3.2c-17.3-1.6-34.6-3.5-51.4-8.7
		c-3.6-1.1-7-2.9-10.3-4.7C31.8,316.6,30.8,313.6,31.2,310z"/>
	<path class="st0" d="M470.7,271.2c5.6,0,10.9,0,16.1,0c0,6.8,0,13.1,0,19.8c-5.3,0.3-10.7,0.6-16.1,0.9
		C470.7,284.9,470.7,278,470.7,271.2z"/>
	<path class="st0" d="M145.5,269.7c0,6.2,0,11.8,0,17.4c0,0.5-0.1,0.9-0.2,1.5c-4.9,0-9.8,0-15.2,0c0-6,0-11.8,0.1-17.6
		c0-0.4,0.9-1.3,1.3-1.3C136.1,269.7,140.6,269.7,145.5,269.7z"/>
	<path class="st0" d="M528.2,226.1c-8.6,8.4-10.4,16.5-6.1,24.6c4.2,7.9,13.6,12,22.8,10c9.7-2.1,14.6-8.8,15.6-21.2
		c3.4,8.3-2.4,19.6-12.1,23.8c-11.4,5-24.6,0.1-29.7-10.8C514.3,242.9,518.4,231,528.2,226.1z"/>
	<path class="st0" d="M101.8,235.3c5.1,9.7,0.5,21.9-9.7,27.1c-11.3,5.7-25.4,1.2-30.7-9.7c-4.5-9.3-0.9-21.7,7.3-25.6
		c-7.8,9.3-8.8,18-2.9,25.8c5.7,7.5,16.3,10.1,25.2,6.2C100.1,254.9,104,246.7,101.8,235.3z"/>
	<path class="st0" d="M508.9,236c3.7,7.9,0.2,17.6-7.4,22c-8.1,4.6-18.3,2.5-23.7-4.9c-5.5-7.6-4.4-17.6,2.7-23.7
		c-6.1,8.3-6.6,16.5,1,24c4.8,4.8,12.6,5.6,18.8,2.6C507.3,252.5,510,246.3,508.9,236z"/>
	<path class="st0" d="M142.9,236.4c3.6,7,0.3,16.7-6.8,21.3c-7.9,5-18.4,3.2-24-4.2c-5.6-7.3-4.8-17.5,2-23.6
		c-5.7,8.3-6.1,16.3,1.4,23.5c5.1,4.9,11.4,5.8,17.8,2.9C141.8,252.6,144.5,245.7,142.9,236.4z"/>
	<path class="st0" d="M366.7,378.6c0,9.1,0,18,0,26.9c0,2.8,0.1,5.7-0.2,8.5c-0.7,7.5-5.7,12-13.3,12c-26.3,0-52.7,0-79,0
		c-7.5,0-15.1,0-22.6,0c-8.7,0-13.8-5-13.8-13.7c-0.1-10.6,0-21.2,0-31.9c0-1,0-1.9,0-2.4c-8.1-1.4-15.9-2.3-23.5-4.1
		c-5.6-1.3-11-3.2-16.3-5.5c-13.8-6-23.1-15.9-27.2-30.9c-6-22.1-10.8-44.3-12.8-67.2c-0.6-7.4-1.9-14.9-0.8-22.3
		c0.7-4.5,1.8-9.1,3.6-13.3c2.1-5,6.2-7.9,11.9-8.3c17-1.1,33.9-2.7,50.9-3.3c20-0.8,40-0.8,60-1.2c0.7,0,1.5-0.1,2.1-0.3
		c11.1-3.2,22.2-3,33.4-0.6c1.7,0.4,3.5,0.6,5.3,0.6c20.3,0.3,40.5,0.2,60.8,0.8c15.6,0.5,31.2,1.6,46.8,2.8c4,0.3,8.1,1.5,12,2.9
		c5.9,2.2,7.8,7.4,7.8,13.1c0.1,9,0,18-0.6,27c-0.9,12.4-1.7,24.9-3.9,37.2c-2.8,16-8,31.3-15.6,45.8c-6.2,11.8-15.9,18.6-28.6,21.8
		c-11.1,2.9-22.4,4.5-33.8,5.2C368.6,378.5,367.8,378.6,366.7,378.6z M380.3,241c-2.2-0.2-4.3-0.5-6.5-0.5c-0.6,0-1.6,0.8-1.7,1.3
		c-0.2,4.4-0.3,8.8-0.4,13.3c-0.1,1.6-0.3,3.1-0.4,4.6c-10.6,0-20.9,0-31,0c0-3.5-0.1-6.8,0-10.1c0.1-3.1,0.1-3.3-3.3-2.9
		c0,4.3,0,8.7,0,13.3c-10.8,0-21.3,0-31.9,0c-0.1-1.5-0.2-2.6-0.3-3.8c-1.7,0-3.1,0-4.8,0c0,1.5,0,2.8,0,4.3
		c-9.9,0.9-19.6,1.4-29.3-0.1c-0.6-0.1-1.7-0.7-1.7-1.2c-0.3-4.1-0.5-8.2-0.7-12.3c-1.5-0.3-2.3,0.3-2.2,2.2c0.1,2.7-0.2,5.4-0.1,8
		c0.1,1.6-0.7,2.2-2.1,2.3c-4.2,0.2-8.4,0.6-12.6,0.5c-5.4-0.2-10.7-0.8-16.2-1.3c0-4.6,0-8.8,0-12.9c0-3.9-2.3-5.5-6.2-4.2
		c1.2,0.2,2.1,0.4,2.7,0.5c0,5.6,0,10.9,0,16.5c-10.2-0.5-19.9-1.1-29.9-1.6c0-5.2-0.1-10.1,0.1-15.1c0-0.7,0.9-1.3,1.3-1.8
		c-0.7-1.2-1.4-2.6-2.2-4c-0.3,0-0.9,0-1.5,0c-6.8-0.3-13.6-0.5-20.3-0.9c-2-0.1-3.8-1-3.9-3.5c-5.2,1-8.3,4.2-10.3,8.7
		c-2.2,4.9-3.2,10.1-2.9,15.4c0.6,10.3,1.4,20.7,2.7,31c2.2,17.8,6.4,35.2,11.7,52.3c2,6.4,5.2,11.8,10,16.3
		c7.8,7.3,17.3,11.3,27.4,14.1c7.6,2.1,15.4,3.4,23.8,3.8c0-2.2,0-4.2,0-6.2c0-0.3-0.5-0.6-0.8-1c-0.4-0.6-1.1-1.3-1.1-1.9
		c0-3.9,0.2-7.8,0.2-11.7c0-1.8,0.7-2.2,2.3-2.1c8.5,0.5,17,0.8,25.5,1.2c0.8,0,1.7,0.3,2.5,0.4c0.1,1.4,0.2,2.6,0.2,3.7
		c1.2,0,2.1,0,3.1,0c0.1-1.3,0.2-2.5,0.3-3.6c10.2,0,20.2,0,30.3,0c0.1,1.4,0.2,2.5,0.4,3.6c1.4,0,2.6,0,3.9,0
		c0.1-1.1,0.1-2.1,0.2-3.1c10,0,19.9,0,29.8,0c0.2,1.2,0.3,2.1,0.5,3.1c1.5,0,2.8,0,4.2,0c0.1-1.1,0.2-2.1,0.3-3.4
		c10.5,0,21,0,31.3,0c0,5.1,0,10.3,0,15.3c-4.1,1.3-4.8,2.7-3.8,6.5c7.7,0.2,23.9-2.7,33.3-4.9c13.7-3.3,22.7-11.6,28.8-24
		c5.1-10.4,8.6-21.3,11.6-32.4c3-10.7,3.9-21.8,4.6-32.9c0.7-11.6,1-23.1,1.2-34.7c0.1-4.6-1.4-9.1-5.8-11.3
		c-3.5-1.7-7.4-2.5-11.8-3.9c1.3,3.1-0.1,4.1-1.9,4.5c-2.9,0.6-5.9,1.1-8.9,1.2c-4.8,0.2-9.7,0.1-14.8,0.1c0.6,4-3,3.7-5.4,5.2
		c3.3,0,6.2,0,8.8,0c0,6.1,0,12.1,0,18.2c-10.5,0.3-20.5,0.5-30.9,0.8c0-4.8,0-9.2,0-13.7C375.8,240.7,375.6,241.8,380.3,241z
		 M301.6,356.7C301.6,356.7,301.6,356.6,301.6,356.7c-17.2-0.1-34.4,0-51.6-0.1c-2.9,0-5.2,0.9-7.2,2.9c-2.8,2.8-4.5,6-4.5,10.1
		c0.1,14.2,0,28.4,0,42.6c0,8.3,4.9,13.1,13.2,13.1c33.6,0,67.1,0,100.7,0c8.8,0,13.5-4.7,13.5-13.5c0-14.2-0.1-28.4-0.2-42.5
		c0-7.9-4.6-12.6-12.5-12.6C336,356.7,318.8,356.7,301.6,356.7z M237.4,373.9c-3.5-0.4-6.8-0.7-10.1-1.2c-12.1-1.8-23.8-5-34.3-11.6
		c-7.7-4.8-14-11.1-16.5-20c-3.5-12.4-7-24.8-9.5-37.4c-2.3-11.6-3.8-23.5-4.9-35.3c-0.7-6.8-0.9-13.8,0.1-20.6
		c2.1-14,7.9-17.1,19.2-18.1c8.5-0.8,17-1.1,25.5-1.5c16.1-0.7,32.2-1.4,48.3-1.8c8.6-0.3,17.2-0.1,25.8-0.2c2.1,0,4.5-0.1,6.4-1
		c10.5-4.8,21-4.8,31.6-0.5c1.5,0.6,3.1,1,4.7,1c8.5,0.3,17,0.3,25.5,0.5c17.8,0.4,35.6,0.7,53.5,1.4c9.9,0.4,19.9,1.6,29.7,2.6
		c2.6,0.3,5.2,1.2,7.6,2.3c5.7,2.5,7.2,7.6,7.2,13.2c0,7-0.1,14.1-0.5,21.1c-1,18-1.9,35.9-7.4,53.2c-3.6,11.1-7.3,22.1-13.6,32.1
		c-4.6,7.3-10.7,12.9-19.1,15.3c-7.7,2.2-15.5,4-23.3,5.6c-5.4,1-10.9,1.3-16.4,1.9c0,0.9,0,1.7,0,2.7c0.6,0,1.1,0,1.6,0
		c11.9-0.5,23.7-2.3,35.2-5.4c12-3.2,21.2-9.6,27.1-20.7c9-17.1,14.8-35.2,17.3-54.3c1.4-11.2,2.1-22.4,2.7-33.7
		c0.4-7.8,0.5-15.7,0.2-23.5c-0.2-5.1-2.5-9.7-7.8-11.2c-5.7-1.6-11.5-3-17.3-3.4c-20.1-1.1-40.3-1.9-60.4-2.5
		c-14.1-0.4-28.2-0.3-42.3-0.4c-1.2,0-2.4-0.2-3.6-0.5c-11.2-2.4-22.3-2.6-33.4,0.5c-0.9,0.3-1.9,0.3-2.9,0.3c-17,0.2-34,0-51,0.8
		c-19.3,0.8-38.6,2.5-58,3.6c-6.4,0.4-10.6,3.4-13.2,9.1c-2.2,4.8-3.3,9.9-3.1,15.1c0.4,9.5,1,19.1,2,28.6
		c2.3,20.3,6.8,40.2,12.5,59.8c2.9,9.9,8.6,17.5,17,23.1c10.2,6.8,21.6,10.3,33.5,12.2c4.8,0.8,9.6,1.2,14.6,1.8
		C237.4,375.6,237.4,374.9,237.4,373.9z M325.2,244.2c0.5,0.1,0.9,0.3,1.4,0.4c9.4,1.3,18.9,2.2,28.3,1c4.8-0.6,9.9-1.6,14.2-3.8
		c3.4-1.7,6.5-2,9.9-1.7c1,0.1,1.9,0.3,2.9,0.2c6-0.4,11.9-0.5,17.9-1.3c3-0.4,3.3-1.5,2.5-4.1c5.2,0,10.5,0.1,15.7-0.1
		c3-0.1,6.1-0.7,9.1-1.3c0.7-0.1,1.2-1.1,1.8-1.7c-0.7-0.5-1.3-1.3-2-1.5c-1.3-0.4-2.7-0.5-4.1-0.6c-19.2-0.8-38.3-1.8-57.5-2.4
		c-14-0.4-28-0.4-42-0.6c-2.3,0-4.6-0.6-7.6-1.1C325.7,233.4,326.8,235.6,325.2,244.2z M288.3,226.6c-2.4,0.2-4.5,0.5-6.6,0.5
		c-3.1,0.1-6.1-0.1-9.2,0c-24.4,0.8-48.9,1.6-73.3,2.6c-7,0.3-14,1-21.1,1.5c-0.7,0.1-1.3,0.7-2,1c0.5,0.6,1,1.5,1.7,1.7
		c1.8,0.5,3.6,1,5.5,1c6.5,0.1,13.1,0,19.7,0c-1.1,2.8-0.8,3.5,2,4.4c0.8,0.3,1.7,0.6,2.6,0.6c5.7,0.2,11.5,0.7,17.2,0.5
		c4-0.1,7.8-0.1,11.6,1.4c9.8,4,20.1,4.9,30.5,4.2c4.3-0.3,8.6-0.8,13.1-1.3C277.3,236.2,281.7,230.9,288.3,226.6z M302.7,224.2
		c-6.7,0.4-12.8,2.6-18.1,6.7c-5.4,4.2-6,11.3-1.3,16.2c2,2.1,4.5,4.2,7.1,5.3c10.3,4.3,20.2,3.8,29.3-3.2c7.1-5.4,7-14.3-0.3-19.4
		C314.5,226.2,309,224.1,302.7,224.2z M405.8,258.1c0-5.7,0-11.1,0-16.9c-9.2,0.4-18.3,0.7-27.5,1.1c-1.5,0.1-1.7,0.8-1.7,2
		c0,4.1,0,8.3,0,12.4c0,0.7,0.1,1.4,0.2,2.2C386.6,258.6,396.1,258.3,405.8,258.1z M230.7,242.7c-9.2-0.9-18.6-1.7-28.1-1.5
		c0,5.2,0,9.9,0,14.9c9.3,0.5,18.6,1,28.1,1.5C230.7,252.4,230.7,247.6,230.7,242.7z M370.6,258.9c0.4-5.4,0.7-10.4,1.1-15.9
		c-10,4.3-20.3,4.1-30.6,4.8c0,3.8,0,7.5,0,11.1C350.9,258.9,360.6,258.9,370.6,258.9z M265.1,247.4c-9.9-0.3-19.6-0.1-29.1-3.9
		c0,4.6-0.1,8.7,0.1,12.9c0,0.5,1.1,1.3,1.8,1.4c2.9,0.4,5.8,0.9,8.7,0.9c5.6,0.1,11.1-0.1,16.7-0.3c0.6,0,1.8-1,1.8-1.6
		C265.2,253.8,265.1,250.7,265.1,247.4z M299.1,256.5c-0.2-0.1-0.4-0.2-0.5-0.3c-6-0.6-11.3-2.7-15.3-7.4c-0.2-0.3-0.6-0.6-1-0.6
		c-4-0.2-7.9-0.4-11.9-0.5c-0.4,0-1.1,0.8-1.1,1.2c0.1,3.4,0.3,6.9,0.5,10.4c9.9,1.6,19.6,1.1,29.3,0.2
		C299.1,258.4,299.1,257.6,299.1,256.5z M306,258.8c1.7,0.1,3.3,0.2,4.9,0.2c7.7,0.1,15.4,0.2,23,0.2c0.7,0,2.1-0.8,2.1-1.3
		c0.2-3.5,0.1-7,0.1-10.6c-3.8,0-7.3-0.1-10.7,0.1c-1.2,0.1-2.4,0.8-3.5,1.4c-2.5,1.5-4.9,3.5-7.5,4.8c-2.6,1.3-5.5,2.1-8.4,3.1
		C306,257.3,306,258,306,258.8z M367.5,367.8c0.8-0.4,2.5-0.9,2.5-1.5c0.2-4.6,0.1-9.1,0.1-13.5c-9.9,0-20,0-30.2,0
		c0.1,1.2,0.1,2,0.1,3c4.5,0,8.9,0.1,13.3,0c4.4-0.1,8.2,1.5,10.8,5.1C365.5,362.6,366.2,365,367.5,367.8z M265.6,355.9
		c0-1.5,0-2.5,0-3.7c-9.6-0.5-19.1-1-28.9-1.5c0,5,0,9.7,0,14.3c0.2,0.1,0.4,0.3,0.5,0.4c0.5-0.7,1.2-1.4,1.5-2.2
		c2.4-5,8.2-8.5,13.4-8.1C256.5,355.6,260.9,355.7,265.6,355.9z M299.7,352.6c-9.9,0-19.5,0-29.1,0c0,0.9,0,1.8,0,2.9
		c9.8,0,19.5,0,29.1,0C299.7,354.6,299.7,353.8,299.7,352.6z M305.4,352.9c-0.4,2.5-0.4,2.6,1.8,2.6c3.1,0.1,6.1,0.1,9.2,0.1
		c5.9,0,11.8,0,17.9,0c-0.1-1.1-0.1-1.8-0.2-2.7C324.5,352.9,315,352.9,305.4,352.9z M290,225.4c9.1-3.8,18.2-1.7,27.3-0.3
		C308.2,221.4,299,221.2,290,225.4z M273.9,246.6c2.5,0.2,5,0.3,7.5,0.5c0-0.3,0-0.5,0-0.8C279,244.5,276.4,246.5,273.9,246.6z
		 M324.1,245.7c0.1,0.3,0.1,0.5,0.2,0.8c2.6-0.1,5.2-0.2,7.8-0.3C329.4,246.2,326.7,244.3,324.1,245.7z"/>
	<path class="st0" d="M512.1,395.4c-21,2-41.9,4-62.9,6c0-1.5,0-2.5,0-3.7c4.7-0.2,9.5-0.4,14.2-0.6c16-0.7,31.9-2.8,47.7-5.5
		c0.9-0.2,2-1.2,2.5-2.1c3.3-7.1,10.8-11.5,18.1-10.5c7.7,1.1,12.2,7.1,11.2,14.9c-1.2,9.5-11.8,16.7-21,14.3
		C516,406.6,513.1,402.7,512.1,395.4z M526.8,404.5c6.9,0,12.9-4.9,14.3-11.8c1.2-5.6-2.1-10.8-7.7-12.2c-7-1.8-14.9,3-16.9,10.3
		C514.5,398,519.3,404.4,526.8,404.5z M512.5,392.1c-3.3,0.5-6.5,1-9.7,1.5c-17.1,2.6-34.2,4.5-51.4,4.4c-1.9,0-2,0.9-1.4,2.3
		c0.6,0,1.2,0,1.8,0c12.8-1.1,25.6-2.1,38.4-3.3c6.6-0.6,13.2-1.6,19.7-2.4C511.1,394.4,512.7,394.4,512.5,392.1z M538.4,400.7
		c-5.4,4.5-11.5,6.8-17.8,2.9c-7.2-4.4-6.4-11.1-3.2-17.8c-3.5,4.1-5.2,8.6-3.3,13.9c1.7,4.7,5.3,7.2,10.3,7.6
		C530.3,407.8,534.8,405.3,538.4,400.7z"/>
	<path class="st0" d="M167.6,394.6c0,1.1,0,2.1,0,3.8c-21.1-2.7-42-5.3-62.9-7.9c-0.2,1.3-0.3,3-0.8,4.6c-1.7,4.9-5.2,7.7-10.2,8.6
		c-7.6,1.4-15.6-3.2-18.3-10.5c-1.8-5.1-1.3-9.8,2.5-13.8c4.1-4.2,9.3-5.2,14.8-3.5c4.5,1.3,8.1,4.2,10.2,8.5
		c0.8,1.6,1.8,2.2,3.4,2.5c20,3.9,40,7,60.4,7.6C166.9,394.5,167.2,394.6,167.6,394.6z M90.9,399.4c8.4,0.1,13.6-8,9.9-15.6
		c-2.7-5.6-7.6-7.7-13.5-7.7c-4.4,0.1-8.2,3.1-9.5,7.4C75.6,391.1,82.5,399.4,90.9,399.4z M104.4,387.2c-0.2,0.3-0.3,0.5-0.5,0.8
		c0.6,0.5,1.1,1.2,1.8,1.4c1.2,0.4,2.5,0.7,3.8,0.9c13.1,1.8,26.3,3.6,39.4,5.3c5.9,0.8,11.9,1.3,17.9,1.9c0.1-0.7,0.3-1.1,0.3-1.6
		c0-0.2-0.1-0.4-0.2-0.7C145.8,394.5,125,391.3,104.4,387.2z M102.8,387.3c0,7.9-4.4,12.7-11.6,12.8c-8.9,0.1-14.1-6-14.7-16.9
		c-0.5,1.2-1,2.4-1.1,3.7c-0.4,5.7,2,10,6.6,13.2c4.6,3.2,9.7,4,14.9,1.5C102.4,399.1,105,392.9,102.8,387.3z"/>
	<path class="st0" d="M453.4,338.1c-0.1-0.6-0.2-0.9-0.2-1.2c-0.2-3.9-0.2-3.8,3.7-4c20.7-1.6,41.5-2.9,62.2-4.8
		c15.7-1.5,31.3-3.7,47-6c6.4-0.9,12.8-2.9,19.1-4.5c1.9-0.5,3.7-1.6,6.1-2.8c-0.5,1.5-0.6,2.7-1.2,3.7c-1.5,2.3-3.7,3.7-6.5,4.2
		c-27.9,5.7-56,9.8-84.3,12.4c-14.4,1.3-28.9,2.1-43.4,3.1C455.2,338.2,454.4,338.1,453.4,338.1z M590.3,316.5
		c-4.6,1.4-9.1,3.3-13.7,4.1c-15.2,2.5-30.5,5.2-45.8,6.8c-21.1,2.3-42.2,3.7-63.4,5.4c-4.5,0.4-9,0.6-13.4,0.9c0,1.4,0,2.5,0,3.8
		c8.8-0.5,17.5-0.7,26.1-1.6c20.1-2,40.3-4,60.3-6.7c14.7-2,29.3-5,44-7.6C587.4,321.2,589.2,319.1,590.3,316.5z"/>
	<path class="st0" d="M438.9,427.2c0-2.1,0-3.9,0-5.8c3.8-0.3,7.5-0.5,11.2-0.9c21-2.2,42-4.6,63-6.7c11.7-1.2,22.9-4,33.3-9.6
		c2,2.3,2,2.6-0.4,4.1c-5.5,3.6-11.8,5.5-18.1,6.7c-15.4,2.9-30.9,5.6-46.4,7.8c-13.2,1.9-26.5,2.9-39.8,4.3
		C440.8,427.1,439.9,427.1,438.9,427.2z M439.4,426.3c1.2,0,2,0.1,2.8,0c12.7-1.3,25.5-2.4,38.2-3.9c16.3-1.9,32.6-4.2,48.5-8.3
		c5.6-1.5,10.9-3.9,16.3-6c0.7-0.3,1.1-1.5,1.6-2.2c-0.8,0.1-1.8,0-2.5,0.4c-6.8,3.3-13.9,5.9-21.4,6.9c-18,2.3-36,4.4-54,6.4
		c-9.6,1.1-19.3,1.8-29.2,2.8C439.6,423.3,439.5,424.7,439.4,426.3z"/>
	<path class="st0" d="M68,399c12.8,7.3,26.9,9.2,41.1,10.7c15.8,1.6,31.5,3.5,47.3,5.1c6.3,0.7,12.6,1,19.1,1.6c0,1.8,0,3.7,0,5.8
		c-5.7-0.5-11.3-0.8-16.9-1.5c-15.3-1.8-30.7-3.6-46-5.8c-12-1.7-24-3.8-35.5-7.7c-2.9-1-5.7-2.3-8.4-3.8
		C66.2,402,66.3,401.7,68,399z M174.9,417.2c-12.5-1.2-24.9-2.4-37.2-3.7c-13.5-1.4-26.9-2.9-40.3-4.5c-10.2-1.2-19.9-4.1-29.4-8.7
		c0,0.8,0.1,1.8,0.6,2.1c1.7,1.1,3.4,2.3,5.3,2.9c9.4,2.6,18.8,5.7,28.4,7.2c21.3,3.3,42.7,5.6,64.1,8.3c2.9,0.4,5.7,0.4,8.6,0.6
		C174.9,419.8,174.9,418.4,174.9,417.2z"/>
	<path class="st0" d="M104,401.3c0.2-1.6,0.3-2.5,0.4-3.4c22.5,2.6,44.8,5.2,67.4,7.8c0,0.7,0,1.9,0,3.6
		C149.2,406.6,126.7,403.9,104,401.3z M104.9,400.7c22.1,2.6,44.2,5.2,66.5,7.8c-0.1-1.3-0.2-2-0.2-2.4c-14.3-1.6-28.3-3.1-42.4-4.8
		c-7.1-0.8-14.3-1.9-21.4-2.7C106.3,398.5,104.6,397.7,104.9,400.7z"/>
	<path class="st0" d="M511.2,402.7c0.1,0.9,0.3,1.8,0.5,3c-22.6,3.1-45.1,4.6-68,6.6c-0.1-1.4-0.1-2.5-0.2-3.4
		C466.1,406.8,488.5,404.8,511.2,402.7z M444.2,411.6c0.9,0,1.4-0.1,2-0.1c9-0.8,18.1-1.5,27.1-2.3c11.5-1.1,23-2.3,34.5-3.6
		c1-0.1,3,0.6,2.8-1.5c0-0.3-2-0.6-3.1-0.6c-16.5,1.5-33,3.2-49.5,4.7c-4.6,0.4-9.1,0.6-13.8,0.9
		C444.2,409.9,444.2,410.6,444.2,411.6z"/>
	<path class="st0" d="M550.6,211.3c-24.6-4.9-48.9-7.7-73.1,0.1c2.6-4.2,5.5-8.2,7.9-12.6c4.5-8.4,7.3-17.3,6.9-27
		c-0.4-9-3.7-16.8-9.5-23.6c-0.5-0.5-1.7-0.8-2.5-0.7c-13.5,2.6-26.9,5.8-40.5,7.9c-16,2.4-32.1,4.1-48.2,5.6
		c-22.9,2.2-45.9,2.7-68.9,2.4c-23.7-0.3-47.3-1.7-70.8-4.2c-30.1-3.2-59.8-8-89.3-14.7c-0.9-0.2-2.3,0-2.8,0.5
		c-10,9.8-18,20.9-20.6,35c-1.6,8.7,0.1,16.9,4.7,24.5c0.7,1.2,1.1,2.6,1.7,4.2c-22.4-1.9-44.4-6.1-66.1,1.2
		c0.7-5.4,2.9-10.7,5.9-15.7c6.4-10.8,15.2-19.5,24.7-27.5c12.7-10.7,26.4-19.8,40.9-27.9c1-0.6,2.4-0.8,3.6-0.6
		c23.4,3.5,46.7,7.7,70.1,10.4c22.5,2.7,45.2,4.2,67.8,5.6c16.6,1,33.2,1.3,49.8,1.2c40-0.2,79.8-3.4,119-11.9
		c7.3-1.6,14.5-3.6,21.7-5.3c0.9-0.2,2.2-0.2,2.9,0.3c20.2,12.8,38.6,27.6,52.8,47.2c5.4,7.4,9.5,15.4,11.9,24.3
		C550.6,210.3,550.6,210.6,550.6,211.3z M143.9,207.5c0-0.2,0.1-0.5,0-0.7c-0.3-0.7-0.7-1.3-1-1.9c-5.1-8.4-6.5-17.4-4.3-26.9
		c3-13.2,10.6-23.6,19.8-33.1c1.4-1.4,2.6-1.6,4.5-1.2c23.1,5.3,46.3,9.4,69.8,12.5c26,3.4,52,5.5,78.2,6.2
		c24.6,0.7,49.3,0.2,73.8-1.6c32.4-2.4,64.4-6.5,96-14.2c0.8-0.2,2.1,0.2,2.6,0.8c4,4.5,7,9.7,8.6,15.6c3.2,11.9,0.9,23.1-4.4,33.9
		c-2.1,4.3-4.7,8.4-7.2,12.7c23-6.4,46-4,69.3,0.6c-0.3-1.1-0.5-1.9-0.7-2.7c-2.6-8.3-6.8-15.7-12-22.7
		c-12.8-17.2-29.1-30.5-46.6-42.6c-3.9-2.7-7.4-3.9-11.8-1.8c-0.9,0.4-1.9,0.5-2.8,0.7c-38,9.6-76.6,13.8-115.7,14.9
		c-17.5,0.5-35,0.6-52.5-0.2c-24.6-1.1-49.2-2.9-73.7-5.1c-26.5-2.4-52.9-6.5-79.1-11.5c-1-0.2-2.3,0-3.2,0.5
		c-17,9.5-33,20.3-47.3,33.5c-7.8,7.2-14.9,15-19.7,24.5c-1.7,3.4-2.9,7.1-4.3,10.6c10.8-3.3,21.3-3.5,31.8-3
		C122.7,205.7,133.2,206.7,143.9,207.5z"/>
	<path class="st0" d="M495.9,135.6c-6.2-0.5-12.1-1.1-17.9-1.5c-19.8-1.6-39.5-3.8-59.3-4.5c-26.9-0.9-53.8-0.5-80.7-0.6
		c-35.3,0-70.7-0.1-106,0.2c-13.1,0.1-26.2,1.2-39.3,1.9c-11.4,0.6-22.8,1.4-34.2,2.2c-4.6,0.3-9.1,0.9-13.9,1.4
		c0.1-0.4,0.1-0.7,0.2-0.9c13.3-21,26.4-42.2,41.8-61.7c11.1-14.1,8.5-11.6,23.9-13c28.6-2.6,57.3-4.8,86-6.3
		c24.3-1.3,48.7-1.6,73.1-1.8c19.6-0.2,39.2,0.6,58.6,3.5c4.9,0.7,9.7,1.9,14.5,3c1,0.2,2,0.8,2.6,1.5c15.5,18.8,30.7,37.9,43,59.1
		c2.7,4.6,4.6,9.6,6.8,14.5C495.6,133.5,495.7,134.4,495.9,135.6z M458.6,127.6c0-0.7,0.1-1.2,0.1-1.8c0-0.6-0.1-1.1-0.2-1.7
		c-1.2-6.1-4.1-11.4-7.1-16.7c-6.9-11.9-15.3-22.9-23.7-33.8c-2.7-3.4-5.7-6.2-9.7-7.8c-2.4-1-4.8-1.9-7.3-2.6
		c-15.9-4.6-32.4-5.7-48.8-6.1c-17.2-0.4-34.3-0.1-51.5,0.1c-12.1,0.1-24.1,0.3-36.2,0.9c-13.4,0.7-26.7,2.4-39.9,5.7
		c-11,2.8-19.9,8.1-25.6,18.4c-8.1,14.5-14.5,29.6-20.3,45.1c-0.1,0.2,0.1,0.4,0.2,1.3c10.2,0,20.4,0,30.6,0c0.6,0,1.3-0.5,1.9-0.8
		c2.6-1.5,5-3.6,7.7-4.3c4.9-1.2,10-1.6,15.1-2.3c0.7-0.1,2-0.5,2-0.8c-0.1-2.6,1.2-5.4-1.3-7.8c-2.2-2.1-3.1-4.9-3.1-8
		c-0.1-3.9-0.1-7.8,0-11.7c0.2-6.4,4.6-11.6,11-12.1c5.1-0.4,10.3-0.1,15.5-0.1c0.6,0,1.4-0.1,1.9-0.4c1.6-0.9,3.1-2.6,4.7-2.8
		c5-0.7,10-0.8,15-1.1c2.9-0.1,6,0.5,8.7-0.2c14.7-4.1,29.4-4.2,44.3-1.3c2.9,0.6,5.8,1.4,8.8,1.5c6.4,0.3,12.8,0.2,19.1,0.5
		c3,0.1,5.9,1,7.4,3c2.9-0.8,5.5-1.9,8-2c4.6-0.3,9.2-0.2,13.8,0c6.7,0.4,11.4,5.5,11.5,12.3c0,3.6,0,7.3,0,10.9
		c0.1,4.4-1.7,7.8-5.1,10.5c-0.5,0.4-1.3,1-1.3,1.6c-0.1,2.6-0.1,5.1-0.1,8c1.7,0,3.1-0.1,4.4,0c7.1,0.6,14,1.5,19.9,6.1
		c0.6,0.4,1.5,0.6,2.2,0.6c8.5,0,17-0.1,25.5-0.1C457.4,127.8,458,127.7,458.6,127.6z M494.7,134.6c-0.1-0.7-0.1-1.1-0.2-1.4
		c-1.9-4.4-3.6-8.9-5.9-13c-12.4-21.7-27.9-41.1-43.7-60.4c-0.6-0.7-1.7-1.3-2.7-1.4c-8.2-1.5-16.4-3.3-24.6-4.2
		c-22.3-2.3-44.8-2.7-67.2-2.2c-17.8,0.4-35.7,0.6-53.4,1.7c-29,1.8-58,3.8-87,6.4c-14.4,1.3-11.6-1.2-22.3,12.2
		c-15.2,19-28,39.7-41,60.2c-0.2,0.3-0.2,0.7-0.2,0.6c21.4-1.4,42.7-2.7,64-4.1c0-0.1,0-0.3,0-0.4c-7.7,0-15.3,0-23.5,0
		c1.4-3.6,2.4-6.6,3.6-9.6c5.5-13.7,11.1-27.3,19-39.8c4.3-6.8,10.1-11.8,17.9-14.1c2.6-0.8,5.1-1.7,7.7-2.3
		c17.8-4.6,36-5.7,54.2-6.2c16.2-0.4,32.4-0.7,48.6-0.5c15.9,0.2,31.9,0.9,47.8,1.9c9.4,0.6,18.7,2.2,27.6,5.3
		c4.9,1.7,9.8,3.6,13.1,7.9c6.3,8.3,12.7,16.6,18.7,25.2c5.3,7.6,10.3,15.4,13,24.3c0.7,2.4,0.9,4.9,1.3,7.9c-10,0-19.2,0-28.5,0
		c0,0.2,0,0.4,0,0.6C452.2,131,473.4,132.8,494.7,134.6z M269.8,80.5c7.7,3.6,9.8,9.4,9.3,16.5c12.6-0.1,13.8,0.8,15.7,11.7
		c21.4-0.4,42.9-0.8,64.4-1.3c0-7,2.7-10,9.5-11c1.5-0.2,3-0.4,4.6-0.6c0-5.5,0-10.8,4-14.8c-2.5-3.9-20-6.1-26.9-3.5
		c2.4,3.6,2,5.2-2,7c-1.1,0.5-2.3,0.9-3.4,1.1c-10.3,2.3-20.8,3.6-31.3,2.3c-5.3-0.7-10.7-1.7-15.9-3.2c-4.5-1.3-4.9-3.2-2.6-7.5
		c-7.4-0.3-14.6-0.8-21.7,1.2C272.3,78.7,271.4,79.5,269.8,80.5z M278.9,98.1c0,0.7,0.1,1.4,0.1,2.1c0.1,4.2,0.1,8.6-2.8,11.8
		c-2.6,2.9-1.9,5.9-1.8,9.1c1.7,0.2,3.2,0.3,4.7,0.7c3.3,0.9,6.9,1.5,9.8,3.2c2.3,1.4,4.3,1.7,6.8,1.6c7-0.2,14.1-0.3,21.1-0.4
		c14.5-0.3,29-0.5,43.5-0.8c0.7,0,1.3-0.4,1.9-0.7c1.9-1,3.7-2.4,5.7-2.9c4-0.9,8.1-1.3,12.4-2c0-2,0.1-4.2,0-6.3
		c0-0.5-0.5-1.2-0.9-1.5c-3.2-1.9-4.7-4.9-5.4-8.3c-0.4-2.3-0.6-4.6-0.9-6.8c-9.6-0.5-13.9,3.2-13.1,11.1
		c-22.1,0.4-44.1,0.9-66.2,1.3C293.4,99.3,288.5,95.7,278.9,98.1z M392.4,113.9c0-0.2,0-0.3,0.1-0.5c2.1,0,4.2,0.1,6.3,0
		c6.4-0.4,11.9-5.1,11.8-11.9c-0.1-3.7,0-7.4,0-11.2c0-6.4-4.8-11.5-11.2-11.8c-4.6-0.2-9.2-0.2-13.8,0c-6,0.3-10.6,4.5-11.1,10.5
		c-0.4,4.4-0.3,8.9,0,13.3c0.4,4.6,2.4,8.6,7.2,9.9C385.2,113.1,388.8,113.4,392.4,113.9z M260.3,81.2
		C260.3,81.2,260.3,81.2,260.3,81.2c-2.3,0-4.5-0.1-6.8,0.1c-6.5,0.3-11.3,5.3-11.3,11.9c0,3.6,0.1,7.3,0,10.9
		c-0.2,6.7,5.3,11.8,11.7,12.1c4.3,0.2,8.6,0.2,12.9,0c5-0.2,10.7-3.6,11.1-9.3c0.4-5.2,0.8-10.5,0.2-15.7c-0.6-6-5.4-9.6-11.4-9.9
		C264.5,81.1,262.4,81.2,260.3,81.2z M321.7,88.3c0-0.2,0.1-0.3,0.1-0.5c3.5-0.3,7.1-0.3,10.6-0.8c5.2-0.8,10.5-1.9,15.6-3.2
		c1.3-0.3,3.3-2.4,3.1-3c-0.6-1.5-2.2-2.7-3.4-4c-0.3-0.3-0.9-0.3-1.4-0.4c-8.7-2.2-17.5-3.2-26.4-2.9c-7.6,0.2-15,1.2-22.2,3.7
		c-1.4,0.5-2.7,2-3.2,3.4c-0.2,0.6,1.4,2.3,2.5,3c1.2,0.8,2.8,1.3,4.3,1.6C308.1,86.3,314.9,87.3,321.7,88.3z M289.3,126.7
		c0.1-0.3,0.1-0.5,0.2-0.8c-1.2-0.6-2.4-1.5-3.6-1.8c-4.7-0.9-9.3-2.1-14-2.3c-9.5-0.3-18.9-0.1-28.4,0.1c-5.8,0.1-11.6,0.7-17,3.2
		c-1.4,0.7-2.7,1.7-4.1,2.5c0.1,0.2,0.2,0.4,0.3,0.6C244.8,127.7,267,127.2,289.3,126.7z M363.3,124.5c0.1,0.2,0.1,0.5,0.2,0.7
		c21.8,1.3,43.6,2.6,65.3,3.9c-4.1-4.4-9.3-6-14.7-6.4c-9.9-0.8-19.9-1.4-29.8-1.5c-5.7-0.1-11.4,0.8-17.1,1.5
		C365.9,122.9,364.6,123.9,363.3,124.5z M261.4,128.2c42.3,0,85.2,0,128.1,0c0-0.2,0-0.4,0-0.6c-11-0.5-22-1.4-33-1.4
		c-12.7-0.1-25.4,0.5-38.1,0.8C299.3,127.3,280.1,127.8,261.4,128.2z M401,120.8c0-2.5,0-4.6,0-6.8c-5.6,0-11.1,0-16.6,0
		c0,2.1,0,4,0,6.1C389.9,120.3,395.3,120.6,401,120.8z M270.4,116.6c-6.9,0-13.7,0-20.5,0c0,1.4,0,2.8,0,4.1c7,0,13.7,0,20.5,0
		C270.4,119.2,270.4,117.8,270.4,116.6z M403.9,113.3c-1.8,0.9-2.5,3.9-1.8,6.5c0.1,0.5,0.9,0.8,1.8,1.5c0-2.3,0-3.8,0-5.3
		C403.9,115.2,403.9,114.4,403.9,113.3z M246.8,115.1c0,1.8-0.1,3.3,0.1,4.8c0,0.3,1.3,0.9,1.6,0.7
		C249.7,119.8,248.6,115.8,246.8,115.1z M381.3,119.9c3-0.1,1.8-2.2,1.9-3.4c0.2-2.6,0-2.6-1.9-2.9
		C381.3,115.7,381.3,117.7,381.3,119.9z M273.4,115.1c-3,0.6-1.6,2.9-1.8,4.5c-0.1,0.4,0.8,1,1.2,1.5c0.2-0.1,0.4-0.3,0.6-0.4
		C273.4,118.8,273.4,117,273.4,115.1z"/>
	<path class="st0" d="M380.3,241c-4.7,0.8-4.5-0.3-4.5,5c0,4.4,0,8.9,0,13.7c10.3-0.3,20.4-0.5,30.9-0.8c0-6.1,0-12.1,0-18.2
		c-2.6,0-5.5,0-8.8,0c2.4-1.5,6.1-1.2,5.4-5.2c5.1,0,9.9,0.1,14.8-0.1c3-0.1,6-0.6,8.9-1.2c1.8-0.4,3.2-1.4,1.9-4.5
		c4.4,1.4,8.4,2.2,11.8,3.9c4.4,2.2,5.9,6.7,5.8,11.3c-0.2,11.6-0.5,23.2-1.2,34.7c-0.6,11.1-1.6,22.2-4.6,32.9
		c-3.1,11.1-6.6,22-11.6,32.4c-6,12.4-15.1,20.7-28.8,24c-9.4,2.3-25.6,5.1-33.3,4.9c-1.1-3.9-0.3-5.3,3.8-6.5c0-5,0-10.2,0-15.3
		c-10.3,0-20.8,0-31.3,0c-0.1,1.3-0.2,2.3-0.3,3.4c-1.4,0-2.7,0-4.2,0c-0.1-1-0.3-1.9-0.5-3.1c-9.9,0-19.8,0-29.8,0
		c-0.1,1-0.1,2-0.2,3.1c-1.2,0-2.5,0-3.9,0c-0.1-1.2-0.2-2.3-0.4-3.6c-10.1,0-20.1,0-30.3,0c-0.1,1.1-0.2,2.3-0.3,3.6
		c-1,0-1.9,0-3.1,0c-0.1-1.1-0.1-2.3-0.2-3.7c-0.8-0.1-1.7-0.3-2.5-0.4c-8.5-0.4-17-0.8-25.5-1.2c-1.7-0.1-2.3,0.3-2.3,2.1
		c0,3.9-0.2,7.8-0.2,11.7c0,0.6,0.7,1.3,1.1,1.9c0.2,0.4,0.7,0.7,0.8,1c0.1,2,0,4,0,6.2c-8.4-0.4-16.2-1.7-23.8-3.8
		c-10.1-2.8-19.6-6.8-27.4-14.1c-4.8-4.5-8.1-10-10-16.3c-5.3-17.1-9.5-34.5-11.7-52.3c-1.3-10.3-2.1-20.6-2.7-31
		c-0.3-5.3,0.7-10.5,2.9-15.4c2-4.4,5.1-7.6,10.3-8.7c0.1,2.6,1.9,3.4,3.9,3.5c6.8,0.4,13.6,0.6,20.3,0.9c0.6,0,1.1,0,1.5,0
		c0.8,1.4,1.5,2.8,2.2,4c-0.4,0.5-1.3,1.2-1.3,1.8c-0.1,4.9-0.1,9.9-0.1,15.1c9.9,0.5,19.7,1.1,29.9,1.6c0-5.6,0-11,0-16.5
		c-0.6-0.1-1.6-0.3-2.7-0.5c4-1.3,6.2,0.3,6.2,4.2c0,4.1,0,8.2,0,12.9c5.5,0.4,10.9,1.1,16.2,1.3c4.2,0.1,8.4-0.3,12.6-0.5
		c1.4-0.1,2.1-0.6,2.1-2.3c-0.1-2.7,0.2-5.3,0.1-8c-0.1-1.9,0.7-2.5,2.2-2.2c0.2,4.2,0.3,8.3,0.7,12.3c0,0.4,1.1,1.1,1.7,1.2
		c9.7,1.5,19.4,1,29.3,0.1c0-1.4,0-2.8,0-4.3c1.7,0,3.2,0,4.8,0c0.1,1.1,0.2,2.2,0.3,3.8c10.5,0,21.1,0,31.9,0c0-4.6,0-8.9,0-13.3
		c3.4-0.4,3.5-0.2,3.3,2.9c-0.1,3.3,0,6.6,0,10.1c10.2,0,20.4,0,31,0c0.1-1.5,0.4-3,0.4-4.6c0.2-4.4,0.2-8.9,0.4-13.3
		c0-0.5,1.1-1.3,1.7-1.3C376,240.5,378.1,240.8,380.3,241z M198.4,240.8c-1.1-0.1-2.2-0.3-3.2-0.3c-5.4,0.1-10.8,0.2-16.2,0.4
		c-8.2,0.4-12.4,5.7-11.2,13.8c0.2,1.7,0.9,2.2,2.5,2.2c5.3,0.1,10.5,0.3,15.8,0.4c4.1,0.1,8.2,0,12.4,0
		C198.4,251.8,198.4,246.4,198.4,240.8z M410.2,257.5c2.8,0,5.2,0,7.6,0c6.9-0.1,13.8-0.1,20.6-0.3c1.3,0,2.7,0.1,3.4-1.7
		c2.7-7-0.5-13.8-8-14.5c-7.8-0.8-15.7-0.2-23.6-0.2C410.2,246.5,410.2,251.8,410.2,257.5z M409.4,278.8c0.5,0.2,0.7,0.3,1,0.3
		c9.6,0,19.2,0.1,28.9,0c0.5,0,1.5-0.9,1.5-1.5c0.3-4.4,0.4-8.9,0.5-13.3c0-1.3-0.6-1.6-1.8-1.6c-9.5,0.5-19,0.9-28.6,1.4
		c-0.5,0-1.5,0.7-1.5,1.1C409.4,269.7,409.4,274.3,409.4,278.8z M405.4,287c-10.3,0.3-20.5,0.7-30.5,1c0,4.4,0,8.4,0,12.4
		c2.1,0,3.9,0,5.8,0c7.3-0.1,14.6-0.4,21.9-0.4c1.6,0,2.1-0.5,2.2-2.1C404.8,294.5,405.1,291.1,405.4,287z M439.9,285.3
		c-10.6,0.3-20.7,0.7-30.9,1c0,4.5,0,8.7,0,13.2c9.9,0,19.5,0,29.3,0C438.8,294.9,439.3,290.3,439.9,285.3z M266.3,342.6
		c0-3.9,0-7.5,0-11.4c-10-0.3-20-0.7-30.1-1c0,3.8,0,7.3,0,11.1C246.2,341.7,256.1,342.1,266.3,342.6z M339.2,288.3
		c0.2,5,0.4,9.6,0.7,14.4c10.2-0.4,20.1-0.9,30.1-1.3c0-4.6,0-9,0-13.2C359.7,288.3,349.6,288.3,339.2,288.3z M234.8,287
		c0,3.9,0.1,7.4,0,10.9c0,1.6,0.7,2.1,2.1,2.2c3.1,0.2,6.1,0.6,9.2,0.8c5.8,0.4,11.6,0.8,17.4,1.1c0.7,0,2.2-0.7,2.2-1.1
		c0.2-4.2,0.1-8.5,0.1-12.9C255.2,287.7,245,287.4,234.8,287z M406.3,278.9c0-4.3,0-8.2,0-12.1c0-1.7-0.7-2.2-2.3-2.1
		c-7,0.2-13.9,0.3-20.9,0.4c-2.6,0-5.3,0-8.2,0c0,4.9,0,9.4,0,13.8C385.1,278.9,395.3,278.9,406.3,278.9z M335.9,267.1
		c-10.5,0-20.8,0-31.3,0c0,4.9,0,9.5,0,14.1c10.5,0,20.8,0,31.3,0C335.9,276.3,335.9,271.7,335.9,267.1z M299.9,344.6
		c0-4.3,0-8.2,0-12.2c-10-0.3-19.9-0.7-29.5-1c0,4,0,7.7,0,11.4C280.3,343.4,289.9,344,299.9,344.6z M374.2,322
		c10-0.3,19.4-0.6,28.7-1c0.4,0,1.1-0.8,1.1-1.2c0.4-3.7,0.6-7.3,0.9-11.2c-2.4,0-4.4-0.1-6.5,0c-7.3,0.3-14.6,0.6-21.8,1
		c-0.8,0-2.2,0.9-2.3,1.4C374.1,314.5,374.2,318.2,374.2,322z M404.1,330.2c-10.4,0-20.4,0-30.3,0c0,4.6,0,8.8,0,13.2
		c10-0.4,19.8-0.9,29.8-1.3C403.7,337.9,403.9,334,404.1,330.2z M205.1,348.6c0,3.6,0.1,7,0,10.3c0,1.5,0.5,2.3,1.9,2.6
		c4.7,1.1,9.4,2.5,14.1,3.3c4.2,0.7,8.4,0.8,12.8,1.2c0-5.7,0-10.8,0-16.2C224.2,349.5,214.7,349,205.1,348.6z M371.2,266.7
		c-10.7,0-21,0-31.1,0c0,4.8,0,9.1,0,13.6c2.1,0,3.9,0,5.8,0c7.3-0.2,14.6-0.3,21.9-0.6c1,0,2.6-0.9,2.7-1.5
		C370.9,274.3,371,270.5,371.2,266.7z M372.9,367.2c2.5-0.3,4.5-0.5,6.5-0.9c7-1.1,14.1-2.2,21.1-3.5c0.8-0.1,2.2-1,2.2-1.6
		c0.2-3.4,0.1-6.9,0.1-10.6c-9.5,0.3-19.1,0.5-28.8,0.8C373.6,356.8,373.3,361.8,372.9,367.2z M197.8,264.7
		c-9.9-0.5-19.8-1.1-29.9-1.6c0,4.1,0.1,7.9,0,11.7c-0.1,1.8,0.6,2.3,2.4,2.3c5.3,0.1,10.5,0.5,15.8,0.6c3.9,0.1,7.7,0,11.8,0
		C197.8,273.4,197.8,269.2,197.8,264.7z M265.4,280.4c0-5,0-9.5,0-14.3c-10.3-0.2-20.4-0.5-30.4-0.7c0,4.8,0,9.3,0,14
		C245.2,279.7,255.1,280.1,265.4,280.4z M201.7,277.7c10.2,0.4,19.9,0.8,29.6,1.2c0-4.6,0-8.9,0-13.5c-10.1,0-19.9,0-29.6,0
		C201.7,269.4,201.7,273.5,201.7,277.7z M300.1,302.7c0-4.9,0-9.5,0-14.4c-10.4,0-20.7,0-31.1,0c0.2,4.2,0.4,8.4,0.7,12.8
		C279.9,301.7,289.9,302.2,300.1,302.7z M304.8,289.1c0,4.7,0,9.1,0,13.4c10.4,0,20.4,0,30.6,0c0-4.6,0-9,0-13.4
		C325,289.1,314.9,289.1,304.8,289.1z M370.4,310.3c-10.4,0-20.5,0-30.7,0c0,4.4,0,8.5,0,12.6c10.1,0,20,0,29.9,0
		C369.9,318.6,370.2,314.4,370.4,310.3z M203,318.9c9.3,0.3,18.3,0.7,27.3,0.9c0.5,0,1.5-0.8,1.5-1.3c0.1-3.1,0.1-6.2,0.1-9.5
		c-9.8-0.5-19.3-1-28.9-1.5C203,311.4,203,315,203,318.9z M202,286.1c0,4.4,0,8.4,0,12.6c9.8,0.3,19.6,0.6,29.5,0.9
		c0-4.3,0-8.1,0-12.2C221.6,287,211.9,286.5,202,286.1z M300.1,310.8c-10.2-0.3-20.3-0.7-30.4-1c0,3.7,0.1,7.2,0,10.7
		c-0.1,1.7,0.6,2.2,2.3,2.2c8.9,0.1,17.8,0.4,26.7,0.6c0.5,0,0.9-0.1,1.4-0.2C300.1,318.9,300.1,315,300.1,310.8z M408.8,320.3
		c7.8,0,15.4,0,23-0.1c0.5,0,1.2-0.8,1.3-1.3c1.2-4,2.4-8,3.6-12.3c-9.4,0.4-18.6,0.7-28,1.1C408.8,312,408.8,315.9,408.8,320.3z
		 M168.8,284.2c0.6,4.4,1.2,8.4,1.7,12.4c0.2,1.6,1,2.2,2.7,2.2c6.7-0.1,13.4,0.1,20.2,0.2c1.5,0,3,0,4.8,0c0-4.5,0-8.6,0-12.8
		C188.5,285.5,178.8,284.9,168.8,284.2z M199.2,307.4c-9-0.9-17.9-1.7-27.3-2.6c1.2,4.8,2.3,9.1,3.5,13.4c0.2,0.6,1.1,1.4,1.6,1.4
		c7.4,0.1,14.7,0.1,22.2,0.1C199.2,315.6,199.2,311.7,199.2,307.4z M305,310.7c0,3.8,0.1,7.2,0,10.6c-0.1,1.9,0.6,2.5,2.5,2.5
		c8.7-0.1,17.3,0,26,0c0.6,0,1.2-0.1,1.9-0.2c0-4.4,0-8.6,0-12.8C325.3,310.7,315.3,310.7,305,310.7z M339,344.1
		c10.4-0.3,20.5-0.5,30.5-0.8c0-4.2,0-8,0-11.7c-10.3,0-20.5,0-30.5,0C339,335.9,339,339.8,339,344.1z M236,321.2
		c10.1,0.3,20,0.5,29.8,0.8c0-4.2,0-8.1,0-11.9c-10-0.4-19.9-0.7-29.8-1.1C236,313.1,236,317,236,321.2z M304.7,344.3
		c10.3,0,20.2,0,30.4,0c0-4.3,0-8.3,0-12.2c-10.3,0-20.6,0-30.9,0C304.3,336.5,304.5,340.4,304.7,344.3z M232.6,329.9
		c-9.9-0.5-19.5-1-29.3-1.6c0.2,4.3,0.4,8.3,0.6,12.6c9.7,0,19.2,0,28.7,0C232.6,337.2,232.6,333.7,232.6,329.9z M300.5,266.8
		c-10.4,0-20.6,0-30.8,0c0,4.6,0,9.2,0,13.9c10.3,0,20.5,0,30.8,0C300.5,276.2,300.5,271.8,300.5,266.8z M407.3,341
		c4.7,0.3,9.3,0.5,13.8,0.8c5,0.3,5,0.4,6.8-4.2c1.3-3.2,2.5-6.5,3.9-10c-7.9,0.5-15.4,0.9-22.9,1.5c-0.5,0-1.4,0.9-1.4,1.4
		C407.2,333.9,407.3,337.3,407.3,341z M176.7,326.3c1.2,3.4,2.3,6.4,3.4,9.3c1.9,4.9,2,4.9,7.1,4.6c0.6,0,1.1,0,1.7-0.1
		c3.7-0.3,7.3-0.6,11-0.9c0-3.8,0-7.4,0-11.1C192.3,327.5,184.7,326.9,176.7,326.3z M424.1,348.3c-6.2,0.6-11.7,1.1-17.1,1.6
		c0,3.9,0,7.5,0,11.5C414.4,359.3,419.2,354.4,424.1,348.3z M201,360.1c0-3.5,0-6.9-0.1-10.3c0-0.4-0.7-1.2-1.1-1.2
		c-5.3-0.7-10.5-1.3-15.9-2C187.5,352.8,195.9,359.6,201,360.1z"/>
	<path class="st0" d="M301.6,356.7c17.2,0,34.4,0,51.6,0c7.9,0,12.5,4.7,12.5,12.6c0,14.2,0.2,28.4,0.2,42.5
		c0,8.8-4.7,13.5-13.5,13.5c-33.6,0-67.1,0-100.7,0c-8.3,0-13.2-4.8-13.2-13.1c0-14.2,0-28.4,0-42.6c0-4.1,1.7-7.3,4.5-10.1
		c2-2,4.3-2.9,7.2-2.9C267.2,356.6,284.4,356.6,301.6,356.7C301.6,356.6,301.6,356.7,301.6,356.7z M244.9,412c38.3,0,76.4,0,114.4,0
		c0-15.6,0-30.9,0-46.4c-38.2,0-76.2,0-114.4,0C244.9,381.1,244.9,396.5,244.9,412z"/>
	<path class="st0" d="M237.4,373.9c0,1,0,1.8,0,3.1c-5-0.6-9.8-1-14.6-1.8c-11.9-2-23.3-5.5-33.5-12.2c-8.5-5.6-14.1-13.2-17-23.1
		c-5.7-19.6-10.3-39.5-12.5-59.8c-1.1-9.5-1.7-19-2-28.6c-0.2-5.2,0.9-10.3,3.1-15.1c2.6-5.6,6.8-8.7,13.2-9.1
		c19.3-1.1,38.6-2.8,58-3.6c17-0.7,34-0.5,51-0.8c1,0,2,0,2.9-0.3c11.1-3.1,22.3-2.9,33.4-0.5c1.2,0.2,2.4,0.4,3.6,0.5
		c14.1,0.1,28.2,0,42.3,0.4c20.2,0.6,40.3,1.4,60.4,2.5c5.8,0.3,11.7,1.8,17.3,3.4c5.4,1.5,7.7,6.1,7.8,11.2
		c0.3,7.8,0.2,15.7-0.2,23.5c-0.6,11.2-1.3,22.5-2.7,33.7c-2.4,19.1-8.3,37.2-17.3,54.3c-5.9,11.2-15.1,17.5-27.1,20.7
		c-11.6,3.1-23.3,4.9-35.2,5.4c-0.5,0-0.9,0-1.6,0c0-1,0-1.8,0-2.7c5.5-0.6,11.1-0.8,16.4-1.9c7.8-1.5,15.6-3.4,23.3-5.6
		c8.4-2.4,14.5-8,19.1-15.3c6.3-10,10-21,13.6-32.1c5.6-17.4,6.5-35.3,7.4-53.2c0.4-7,0.5-14.1,0.5-21.1c0-5.6-1.5-10.7-7.2-13.2
		c-2.4-1.1-5-2-7.6-2.3c-9.9-1.1-19.8-2.2-29.7-2.6c-17.8-0.7-35.6-1-53.5-1.4c-8.5-0.2-17-0.3-25.5-0.5c-1.6,0-3.2-0.5-4.7-1
		c-10.6-4.2-21.1-4.3-31.6,0.5c-1.9,0.9-4.2,1-6.4,1c-8.6,0.1-17.2-0.1-25.8,0.2c-16.1,0.5-32.2,1.1-48.3,1.8
		c-8.5,0.4-17,0.7-25.5,1.5c-11.3,1.1-17.1,4.1-19.2,18.1c-1,6.7-0.8,13.8-0.1,20.6c1.2,11.8,2.6,23.7,4.9,35.3
		c2.5,12.6,6,25,9.5,37.4c2.5,8.9,8.8,15.1,16.5,20c10.5,6.6,22.1,9.8,34.3,11.6C230.6,373.2,233.9,373.5,237.4,373.9z"/>
	<path class="st0" d="M325.2,244.2c1.6-8.6,0.5-10.8-9.6-18.6c3,0.4,5.3,1,7.6,1.1c14,0.3,28,0.2,42,0.6c19.2,0.6,38.4,1.6,57.5,2.4
		c1.4,0.1,2.8,0.2,4.1,0.6c0.8,0.2,1.4,1,2,1.5c-0.6,0.6-1.1,1.6-1.8,1.7c-3,0.6-6.1,1.2-9.1,1.3c-5.2,0.2-10.5,0.1-15.7,0.1
		c0.8,2.6,0.4,3.8-2.5,4.1c-5.9,0.7-11.9,0.9-17.9,1.3c-1,0.1-1.9-0.1-2.9-0.2c-3.4-0.3-6.5,0-9.9,1.7c-4.3,2.1-9.3,3.1-14.2,3.8
		c-9.4,1.2-18.9,0.3-28.3-1C326.1,244.5,325.6,244.3,325.2,244.2z"/>
	<path class="st0" d="M288.3,226.6c-6.6,4.3-11,9.6-8.3,18.4c-4.5,0.5-8.8,1-13.1,1.3c-10.4,0.7-20.7-0.2-30.5-4.2
		c-3.8-1.6-7.6-1.6-11.6-1.4c-5.7,0.2-11.5-0.2-17.2-0.5c-0.9,0-1.7-0.4-2.6-0.6c-2.7-0.9-3-1.6-2-4.4c-6.6,0-13.1,0.1-19.7,0
		c-1.8,0-3.7-0.5-5.5-1c-0.7-0.2-1.1-1.1-1.7-1.7c0.7-0.3,1.3-0.9,2-1c7-0.6,14-1.3,21.1-1.5c24.4-0.9,48.8-1.8,73.3-2.6
		c3.1-0.1,6.1,0.1,9.2,0C283.8,227,285.9,226.8,288.3,226.6z"/>
	<path class="st0" d="M302.7,224.2c6.3-0.1,11.8,2,16.8,5.6c7.3,5.1,7.3,14,0.3,19.4c-9.1,7-19,7.5-29.3,3.2
		c-2.7-1.1-5.1-3.1-7.1-5.3c-4.7-5-4.1-12.1,1.3-16.2C289.9,226.8,296,224.6,302.7,224.2z M303.3,229.7c-3.9,0.2-7.8,0.8-11.1,3.2
		c-5.1,3.6-5.1,9.2,0,12.9c6,4.3,16.5,4.3,22.5-0.1c4.9-3.6,4.9-9.2,0-12.7C311.3,230.6,307.5,229.8,303.3,229.7z"/>
	<path class="st0" d="M405.8,258.1c-9.8,0.3-19.2,0.5-28.9,0.8c-0.1-0.8-0.2-1.5-0.2-2.2c0-4.1,0-8.3,0-12.4c0-1.2,0.2-2,1.7-2
		c9.1-0.3,18.3-0.7,27.5-1.1C405.8,247,405.8,252.4,405.8,258.1z"/>
	<path class="st0" d="M230.7,242.7c0,5,0,9.7,0,14.9c-9.5-0.5-18.7-1-28.1-1.5c0-5,0-9.7,0-14.9
		C212.1,240.9,221.5,241.8,230.7,242.7z"/>
	<path class="st0" d="M370.6,258.9c-10,0-19.7,0-29.4,0c0-3.7,0-7.3,0-11.1c10.3-0.7,20.5-0.5,30.6-4.8
		C371.3,248.5,371,253.5,370.6,258.9z"/>
	<path class="st0" d="M265.1,247.4c0,3.3,0.1,6.4-0.1,9.4c0,0.6-1.2,1.5-1.8,1.6c-5.6,0.2-11.1,0.4-16.7,0.3c-2.9,0-5.8-0.5-8.7-0.9
		c-0.7-0.1-1.7-0.9-1.8-1.4c-0.1-4.2-0.1-8.4-0.1-12.9C245.5,247.3,255.2,247.1,265.1,247.4z"/>
	<path class="st0" d="M299.1,256.5c0,1.1,0,1.9,0,3.1c-9.7,0.9-19.4,1.3-29.3-0.2c-0.2-3.5-0.4-6.9-0.5-10.4c0-0.4,0.7-1.2,1.1-1.2
		c4,0.1,7.9,0.3,11.9,0.5c0.3,0,0.7,0.3,1,0.6c4,4.7,9.3,6.8,15.3,7.4C298.7,256.2,298.9,256.4,299.1,256.5z"/>
	<path class="st0" d="M306,258.8c0-0.9,0-1.6,0-2.1c2.9-1,5.7-1.8,8.4-3.1c2.6-1.3,5-3.2,7.5-4.8c1.1-0.6,2.3-1.4,3.5-1.4
		c3.4-0.2,6.9-0.1,10.7-0.1c0,3.6,0.1,7.1-0.1,10.6c0,0.5-1.4,1.3-2.1,1.3c-7.7,0-15.4-0.1-23-0.2
		C309.3,259.1,307.7,258.9,306,258.8z"/>
	<path class="st0" d="M367.5,367.8c-1.3-2.8-2-5.2-3.4-7.1c-2.6-3.5-6.3-5.1-10.8-5.1c-4.4,0.1-8.7,0-13.3,0c0-1-0.1-1.7-0.1-3
		c10.2,0,20.3,0,30.2,0c0,4.4,0.1,8.9-0.1,13.5C370,366.9,368.3,367.4,367.5,367.8z"/>
	<path class="st0" d="M265.6,355.9c-4.6-0.2-9.1-0.3-13.5-0.7c-5.1-0.4-10.9,3-13.4,8.1c-0.4,0.8-1,1.4-1.5,2.2
		c-0.2-0.1-0.4-0.3-0.5-0.4c0-4.7,0-9.3,0-14.3c9.8,0.5,19.3,1,28.9,1.5C265.6,353.4,265.6,354.4,265.6,355.9z"/>
	<path class="st0" d="M299.7,352.6c0,1.3,0,2.1,0,2.9c-9.7,0-19.3,0-29.1,0c0-1.1,0-2.1,0-2.9C280.2,352.6,289.9,352.6,299.7,352.6z
		"/>
	<path class="st0" d="M305.4,352.9c9.6,0,19.1,0,28.7,0c0.1,0.9,0.1,1.7,0.2,2.7c-6.1,0-12,0-17.9,0c-3.1,0-6.1-0.1-9.2-0.1
		C305.1,355.5,305,355.4,305.4,352.9z"/>
	<path class="st0" d="M290,225.4c9.1-4.2,18.2-4,27.3-0.3C308.2,223.8,299.1,221.6,290,225.4z"/>
	<path class="st0" d="M273.9,246.6c2.5-0.1,5.1-2.1,7.5-0.3c0,0.3,0,0.5,0,0.8C278.9,247,276.4,246.8,273.9,246.6z"/>
	<path class="st0" d="M324.1,245.7c2.6-1.4,5.3,0.5,8,0.4c-2.6,0.1-5.2,0.2-7.8,0.3C324.2,246.2,324.2,246,324.1,245.7z"/>
	<path class="st0" d="M526.8,404.5c-7.6,0-12.3-6.4-10.3-13.7c2.1-7.3,9.9-12.1,16.9-10.3c5.5,1.4,8.8,6.7,7.7,12.2
		C539.7,399.5,533.7,404.5,526.8,404.5z"/>
	<path class="st0" d="M512.5,392.1c0.2,2.4-1.4,2.3-2.6,2.4c-6.6,0.9-13.1,1.8-19.7,2.4c-12.8,1.2-25.6,2.2-38.4,3.3
		c-0.6,0-1.1,0-1.8,0c-0.6-1.4-0.5-2.3,1.4-2.3c17.3,0,34.4-1.9,51.4-4.4C506,393.1,509.2,392.6,512.5,392.1z"/>
	<path class="st0" d="M538.4,400.7c-3.6,4.6-8.1,7.1-14.1,6.7c-5-0.4-8.5-2.9-10.3-7.6c-1.9-5.3-0.2-9.8,3.3-13.9
		c-3.1,6.8-4,13.4,3.2,17.8C526.9,407.5,533,405.2,538.4,400.7z"/>
	<path class="st0" d="M90.9,399.4c-8.4-0.1-15.3-8.4-13.1-15.9c1.2-4.3,5-7.3,9.5-7.4c6-0.1,10.8,2.1,13.5,7.7
		C104.5,391.4,99.3,399.5,90.9,399.4z"/>
	<path class="st0" d="M104.4,387.2c20.6,4.1,41.4,7.3,62.5,8c0.1,0.3,0.3,0.5,0.2,0.7c0,0.5-0.2,0.9-0.3,1.6
		c-6-0.6-11.9-1.2-17.9-1.9c-13.2-1.7-26.3-3.5-39.4-5.3c-1.3-0.2-2.6-0.4-3.8-0.9c-0.7-0.2-1.2-0.9-1.8-1.4
		C104.1,387.7,104.2,387.4,104.4,387.2z"/>
	<path class="st0" d="M102.8,387.3c2.2,5.5-0.4,11.8-5.9,14.3c-5.2,2.4-10.3,1.7-14.9-1.5c-4.6-3.2-7-7.5-6.6-13.2
		c0.1-1.3,0.6-2.5,1.1-3.7c0.6,10.9,5.8,17.1,14.7,16.9C98.4,400,102.8,395.2,102.8,387.3z"/>
	<path class="st0" d="M590.3,316.5c-1.1,2.6-2.9,4.6-5.9,5.2c-14.6,2.6-29.2,5.7-44,7.6c-20,2.7-40.2,4.7-60.3,6.7
		c-8.6,0.9-17.3,1.1-26.1,1.6c0-1.4,0-2.4,0-3.8c4.4-0.3,8.9-0.6,13.4-0.9c21.1-1.8,42.3-3.2,63.4-5.4c15.3-1.6,30.6-4.3,45.8-6.8
		C581.2,319.8,585.7,317.9,590.3,316.5z"/>
	<path class="st0" d="M439.4,426.3c0.1-1.6,0.2-2.9,0.3-4.1c9.8-0.9,19.5-1.7,29.2-2.8c18-2,36-4,54-6.4c7.5-1,14.6-3.6,21.4-6.9
		c0.7-0.4,1.7-0.2,2.5-0.4c-0.5,0.8-0.9,2-1.6,2.2c-5.4,2.1-10.7,4.6-16.3,6c-15.9,4.2-32.2,6.4-48.5,8.3
		c-12.7,1.5-25.4,2.6-38.2,3.9C441.4,426.3,440.5,426.3,439.4,426.3z"/>
	<path class="st0" d="M174.9,417.2c0,1.2,0,2.6,0,4.2c-2.8-0.2-5.7-0.3-8.6-0.6c-21.4-2.7-42.8-5.1-64.1-8.3
		c-9.6-1.5-19-4.6-28.4-7.2c-1.9-0.5-3.6-1.8-5.3-2.9c-0.5-0.3-0.6-1.3-0.6-2.1c9.5,4.6,19.2,7.5,29.4,8.7
		c13.4,1.6,26.9,3.1,40.3,4.5C150.1,414.8,162.4,416,174.9,417.2z"/>
	<path class="st0" d="M104.9,400.7c-0.3-3,1.4-2.2,2.5-2.1c7.1,0.9,14.3,1.9,21.4,2.7c14,1.6,28.1,3.2,42.4,4.8
		c0,0.4,0.1,1.1,0.2,2.4C149.1,405.9,127.1,403.3,104.9,400.7z"/>
	<path class="st0" d="M444.2,411.6c0-0.9,0-1.6,0-2.5c4.6-0.3,9.2-0.4,13.8-0.9c16.5-1.5,33-3.2,49.5-4.7c1-0.1,3.1,0.3,3.1,0.6
		c0.2,2.1-1.8,1.4-2.8,1.5c-11.5,1.3-23,2.5-34.5,3.6c-9,0.9-18.1,1.6-27.1,2.3C445.6,411.5,445.1,411.5,444.2,411.6z"/>
	<path class="st0" d="M143.9,207.5c-10.7-0.8-21.2-1.8-31.8-2.3c-10.5-0.5-21-0.3-31.8,3c1.4-3.5,2.6-7.2,4.3-10.6
		c4.8-9.5,11.9-17.3,19.7-24.5c14.3-13.2,30.3-24.1,47.3-33.5c0.9-0.5,2.2-0.6,3.2-0.5c26.2,5,52.5,9,79.1,11.5
		c24.5,2.3,49.1,4,73.7,5.1c17.5,0.8,35,0.7,52.5,0.2c39-1.1,77.7-5.2,115.7-14.9c0.9-0.2,2-0.3,2.8-0.7c4.4-2.1,7.9-0.9,11.8,1.8
		c17.5,12.1,33.8,25.4,46.6,42.6c5.1,6.9,9.4,14.4,12,22.7c0.2,0.8,0.4,1.5,0.7,2.7c-23.3-4.6-46.3-6.9-69.3-0.6
		c2.4-4.3,5.1-8.4,7.2-12.7c5.3-10.8,7.6-22,4.4-33.9c-1.6-5.9-4.5-11.1-8.6-15.6c-0.5-0.6-1.8-1-2.6-0.8
		c-31.6,7.7-63.7,11.8-96,14.2c-24.6,1.8-49.2,2.2-73.8,1.6c-26.2-0.7-52.2-2.8-78.2-6.2c-23.5-3.1-46.7-7.2-69.8-12.5
		c-1.8-0.4-3.1-0.2-4.5,1.2c-9.2,9.5-16.8,19.9-19.8,33.1c-2.1,9.5-0.7,18.5,4.3,26.9c0.4,0.6,0.7,1.3,1,1.9
		C144,207,143.9,207.3,143.9,207.5z"/>
	<path class="st0" d="M458.6,127.6c-0.6,0.1-1.1,0.2-1.7,0.2c-8.5,0.1-17,0.1-25.5,0.1c-0.8,0-1.7-0.1-2.2-0.6
		c-5.9-4.6-12.8-5.5-19.9-6.1c-1.4-0.1-2.7,0-4.4,0c0-2.9-0.1-5.4,0.1-8c0-0.5,0.8-1.2,1.3-1.6c3.4-2.7,5.2-6.1,5.1-10.5
		c-0.1-3.6,0-7.3,0-10.9c-0.1-6.8-4.8-12-11.5-12.3c-4.6-0.3-9.2-0.3-13.8,0c-2.6,0.2-5.1,1.2-8,2c-1.5-2-4.4-2.9-7.4-3
		c-6.4-0.3-12.8-0.2-19.1-0.5c-2.9-0.2-5.8-0.9-8.8-1.5c-14.8-2.9-29.6-2.8-44.3,1.3c-2.7,0.8-5.8,0.1-8.7,0.2c-5,0.3-10,0.4-15,1.1
		c-1.7,0.2-3.1,1.9-4.7,2.8c-0.5,0.3-1.3,0.4-1.9,0.4c-5.2,0-10.4-0.3-15.5,0.1c-6.4,0.5-10.9,5.7-11,12.1c-0.1,3.9-0.1,7.8,0,11.7
		c0.1,3,0.9,5.8,3.1,8c2.4,2.4,1.2,5.2,1.3,7.8c0,0.2-1.3,0.6-2,0.8c-5,0.8-10.2,1.1-15.1,2.3c-2.8,0.7-5.2,2.9-7.7,4.3
		c-0.6,0.3-1.2,0.8-1.9,0.8c-10.2,0.1-20.4,0-30.6,0c-0.1-0.9-0.3-1.1-0.2-1.3c5.8-15.5,12.2-30.7,20.3-45.1
		c5.7-10.2,14.6-15.6,25.6-18.4c13.1-3.3,26.4-5,39.9-5.7c12.1-0.6,24.1-0.7,36.2-0.9c17.2-0.2,34.3-0.5,51.5-0.1
		c16.4,0.4,32.9,1.5,48.8,6.1c2.5,0.7,4.9,1.6,7.3,2.6c4,1.7,7,4.4,9.7,7.8c8.5,10.9,16.8,21.8,23.7,33.8c3,5.3,5.9,10.6,7.1,16.7
		c0.1,0.6,0.2,1.1,0.2,1.7C458.7,126.4,458.6,126.9,458.6,127.6z"/>
	<path class="st0" d="M494.7,134.6c-21.3-1.8-42.5-3.6-63.7-5.4c0-0.2,0-0.4,0-0.6c9.3,0,18.5,0,28.5,0c-0.5-2.9-0.6-5.5-1.3-7.9
		c-2.8-8.9-7.7-16.8-13-24.3c-6-8.6-12.4-16.9-18.7-25.2c-3.3-4.3-8.2-6.3-13.1-7.9c-8.9-3-18.2-4.7-27.6-5.3
		c-15.9-0.9-31.9-1.6-47.8-1.9c-16.2-0.2-32.4,0-48.6,0.5c-18.2,0.5-36.4,1.6-54.2,6.2c-2.6,0.7-5.1,1.6-7.7,2.3
		c-7.8,2.4-13.6,7.3-17.9,14.1c-7.9,12.5-13.5,26.2-19,39.8c-1.2,3-2.3,6-3.6,9.6c8.1,0,15.8,0,23.5,0c0,0.1,0,0.3,0,0.4
		c-21.3,1.4-42.6,2.7-64,4.1c0,0,0-0.4,0.2-0.6c13-20.5,25.8-41.2,41-60.2c10.7-13.4,7.8-10.9,22.3-12.2c29-2.6,58-4.7,87-6.4
		c17.8-1.1,35.6-1.2,53.4-1.7c22.5-0.6,44.9-0.2,67.2,2.2c8.3,0.9,16.4,2.7,24.6,4.2c1,0.2,2.1,0.7,2.7,1.4
		c15.8,19.2,31.3,38.7,43.7,60.4c2.4,4.1,4,8.7,5.9,13C494.7,133.5,494.6,134,494.7,134.6z"/>
	<path class="st0" d="M269.8,80.5c1.6-0.9,2.6-1.8,3.6-2.1c7.1-2.1,14.4-1.5,21.7-1.2c-2.3,4.3-1.8,6.2,2.6,7.5
		c5.2,1.6,10.5,2.6,15.9,3.2c10.6,1.3,21,0,31.3-2.3c1.2-0.3,2.3-0.7,3.4-1.1c4-1.8,4.5-3.4,2-7c6.9-2.6,24.4-0.4,26.9,3.5
		c-4,4.1-4,9.4-4,14.8c-1.6,0.2-3.1,0.3-4.6,0.6c-6.8,0.9-9.5,4-9.5,11c-21.5,0.4-43,0.8-64.4,1.3c-1.9-10.9-3.1-11.8-15.7-11.7
		C279.6,89.8,277.4,84,269.8,80.5z"/>
	<path class="st0" d="M278.9,98.1c9.6-2.5,14.5,1.1,15,11.2c22.1-0.4,44.1-0.9,66.2-1.3c-0.8-7.9,3.5-11.6,13.1-11.1
		c0.3,2.3,0.4,4.6,0.9,6.8c0.7,3.4,2.2,6.4,5.4,8.3c0.5,0.3,0.9,1,0.9,1.5c0.1,2.2,0,4.3,0,6.3c-4.3,0.6-8.4,1-12.4,2
		c-2,0.5-3.8,1.9-5.7,2.9c-0.6,0.3-1.3,0.7-1.9,0.7c-14.5,0.3-29,0.5-43.5,0.8c-7,0.1-14.1,0.3-21.1,0.4c-2.4,0.1-4.5-0.3-6.8-1.6
		c-2.9-1.7-6.5-2.3-9.8-3.2c-1.5-0.4-3-0.5-4.7-0.7c0-3.2-0.7-6.2,1.8-9.1c2.9-3.2,2.9-7.6,2.8-11.8C279,99.5,279,98.8,278.9,98.1z"
		/>
	<path class="st0" d="M392.4,113.9c-3.5-0.5-7.2-0.8-10.6-1.7c-4.8-1.3-6.9-5.3-7.2-9.9c-0.4-4.4-0.4-8.9,0-13.3
		c0.5-6,5.1-10.3,11.1-10.5c4.6-0.2,9.2-0.2,13.8,0c6.4,0.3,11.1,5.4,11.2,11.8c0,3.7,0,7.4,0,11.2c0.1,6.8-5.4,11.6-11.8,11.9
		c-2.1,0.1-4.2,0-6.3,0C392.4,113.6,392.4,113.7,392.4,113.9z"/>
	<path class="st0" d="M260.3,81.2c2.1,0,4.2-0.1,6.3,0c6,0.2,10.8,3.9,11.4,9.9c0.5,5.2,0.2,10.5-0.2,15.7
		c-0.4,5.7-6.1,9.1-11.1,9.3c-4.3,0.2-8.6,0.2-12.9,0c-6.4-0.3-11.9-5.3-11.7-12.1c0.1-3.6,0-7.3,0-10.9c0.1-6.6,4.8-11.5,11.3-11.9
		C255.7,81.2,258,81.3,260.3,81.2C260.3,81.2,260.3,81.2,260.3,81.2z"/>
	<path class="st0" d="M321.7,88.3c-6.8-1-13.6-2-20.3-3.1c-1.5-0.2-3-0.8-4.3-1.6c-1.1-0.7-2.8-2.4-2.5-3c0.5-1.4,1.9-3,3.2-3.4
		c7.2-2.5,14.6-3.5,22.2-3.7c8.9-0.3,17.8,0.7,26.4,2.9c0.5,0.1,1.1,0.1,1.4,0.4c1.3,1.3,2.8,2.4,3.4,4c0.2,0.6-1.8,2.7-3.1,3
		c-5.1,1.3-10.4,2.4-15.6,3.2c-3.5,0.6-7.1,0.6-10.6,0.8C321.8,88,321.7,88.2,321.7,88.3z"/>
	<path class="st0" d="M289.3,126.7c-22.2,0.5-44.5,1.1-66.7,1.6c-0.1-0.2-0.2-0.4-0.3-0.6c1.4-0.9,2.7-1.8,4.1-2.5
		c5.4-2.6,11.2-3.1,17-3.2c9.5-0.2,18.9-0.4,28.4-0.1c4.7,0.2,9.4,1.4,14,2.3c1.3,0.3,2.4,1.2,3.6,1.8
		C289.4,126.2,289.3,126.4,289.3,126.7z"/>
	<path class="st0" d="M363.3,124.5c1.3-0.6,2.6-1.7,4-1.8c5.7-0.7,11.4-1.6,17.1-1.5c9.9,0.1,19.9,0.7,29.8,1.5
		c5.4,0.4,10.6,2,14.7,6.4c-21.8-1.3-43.6-2.6-65.3-3.9C363.4,125,363.3,124.8,363.3,124.5z"/>
	<path class="st0" d="M261.4,128.2c18.7-0.4,37.8-0.8,57-1.2c12.7-0.3,25.4-0.9,38.1-0.8c11,0.1,22,0.9,33,1.4c0,0.2,0,0.4,0,0.6
		C346.6,128.2,303.8,128.2,261.4,128.2z"/>
	<path class="st0" d="M401,120.8c-5.7-0.2-11-0.5-16.6-0.7c0-2,0-4,0-6.1c5.5,0,11,0,16.6,0C401,116.2,401,118.4,401,120.8z"/>
	<path class="st0" d="M270.4,116.6c0,1.2,0,2.6,0,4.1c-6.8,0-13.6,0-20.5,0c0-1.3,0-2.7,0-4.1C256.7,116.6,263.5,116.6,270.4,116.6z
		"/>
	<path class="st0" d="M403.9,113.3c0,1.1,0,1.9,0,2.7c0,1.5,0,3,0,5.3c-0.9-0.8-1.7-1.1-1.8-1.5
		C401.3,117.2,402.1,114.2,403.9,113.3z"/>
	<path class="st0" d="M246.8,115.1c1.8,0.7,2.8,4.7,1.7,5.5c-0.3,0.2-1.6-0.4-1.6-0.7C246.7,118.4,246.8,116.9,246.8,115.1z"/>
	<path class="st0" d="M381.3,119.9c0-2.3,0-4.3,0-6.3c1.9,0.3,2,0.3,1.9,2.9C383.2,117.8,384.3,119.8,381.3,119.9z"/>
	<path class="st0" d="M273.4,115.1c0,2,0,3.8,0,5.6c-0.2,0.1-0.4,0.3-0.6,0.4c-0.4-0.5-1.3-1-1.2-1.5
		C271.7,118,270.4,115.7,273.4,115.1z"/>
	<path class="st0" d="M198.4,240.8c0,5.6,0,11,0,16.6c-4.2,0-8.3,0.1-12.4,0c-5.3-0.1-10.5-0.3-15.8-0.4c-1.6,0-2.2-0.5-2.5-2.2
		c-1.2-8.1,3.1-13.5,11.2-13.8c5.4-0.2,10.8-0.3,16.2-0.4C196.2,240.5,197.2,240.7,198.4,240.8z M197.6,256.2
		c0-4.4,0.1-8.9-0.1-13.3c0-0.5-1.1-1.4-1.6-1.4c-6.1,0.1-12.2,0-18.2,0.5c-7.3,0.7-11.1,7.1-8.5,14.2
		C178.5,256.2,187.8,256.2,197.6,256.2z"/>
	<path class="st0" d="M410.2,257.5c0-5.8,0-11.1,0-16.7c7.9,0,15.8-0.6,23.6,0.2c7.5,0.7,10.7,7.5,8,14.5c-0.7,1.8-2.1,1.7-3.4,1.7
		c-6.9,0.2-13.8,0.2-20.6,0.3C415.4,257.6,413,257.5,410.2,257.5z M411.1,256.7c2.5,0,4.6,0,6.7,0c7-0.1,13.9-0.2,20.9-0.3
		c1.5,0,2.2-0.7,2.6-2.2c1.6-6.5-1-11.6-7.7-12.3c-7.4-0.7-15-0.2-22.5-0.2C411.1,246.8,411.1,251.5,411.1,256.7z"/>
	<path class="st0" d="M409.4,278.8c0-4.5,0-9.1,0.1-13.7c0-0.4,1-1,1.5-1.1c9.5-0.5,19-0.9,28.6-1.4c1.2-0.1,1.9,0.3,1.8,1.6
		c-0.2,4.4-0.3,8.9-0.5,13.3c0,0.5-1,1.5-1.5,1.5c-9.6,0.1-19.2,0-28.9,0C410.2,279.1,410,279,409.4,278.8z M440.4,278.4
		c0-5.1,0-10,0-15c-10.1,0.5-20.2,1-30.2,1.4c0,4.7,0,9.1,0,13.6C420.2,278.4,430.1,278.4,440.4,278.4z"/>
	<path class="st0" d="M405.4,287c-0.3,4-0.6,7.4-0.7,10.8c-0.1,1.5-0.6,2.1-2.2,2.1c-7.3,0.1-14.6,0.3-21.9,0.4c-1.9,0-3.7,0-5.8,0
		c0-4,0-8,0-12.4C385,287.7,395.1,287.4,405.4,287z M375.6,288.6c0,3.9,0,7.5,0,10.9c9.5,0,18.7,0,28.2,0c0.3-4.1,0.6-7.8,0.9-11.8
		C394.9,288,385.4,288.3,375.6,288.6z"/>
	<path class="st0" d="M439.9,285.3c-0.6,5-1.1,9.6-1.6,14.2c-9.8,0-19.4,0-29.3,0c0-4.5,0-8.7,0-13.2
		C419.2,286,429.3,285.7,439.9,285.3z M409.7,286.9c0,4.1,0,7.9,0,11.9c9.4,0,18.7,0,28.1,0c0.5-4.3,0.9-8.4,1.4-12.9
		C429.2,286.3,419.5,286.6,409.7,286.9z"/>
	<path class="st0" d="M266.3,342.6c-10.2-0.4-20-0.9-30.1-1.3c0-3.8,0-7.3,0-11.1c10.1,0.3,20.1,0.7,30.1,1
		C266.3,335.1,266.3,338.7,266.3,342.6z M236.9,340.6c9.6,0.4,19,0.8,28.8,1.2c0-3.5,0-6.7,0-10.1c-9.6-0.3-19.2-0.7-28.8-1
		C236.9,334.3,236.9,337.3,236.9,340.6z"/>
	<path class="st0" d="M339.2,288.3c10.4,0,20.5,0,30.8,0c0,4.2,0,8.5,0,13.2c-10.1,0.4-20,0.8-30.1,1.3
		C339.7,297.9,339.5,293.3,339.2,288.3z M369.4,289c-9.9,0-19.7,0-29.6,0c0.2,4.6,0.5,8.8,0.7,13.1c9.7-0.4,19.2-0.8,28.9-1.3
		C369.4,296.6,369.4,292.8,369.4,289z"/>
	<path class="st0" d="M234.8,287c10.3,0.3,20.4,0.6,31,1c0,4.4,0.1,8.7-0.1,12.9c0,0.4-1.4,1.2-2.2,1.1c-5.8-0.3-11.6-0.7-17.4-1.1
		c-3.1-0.2-6.1-0.6-9.2-0.8c-1.5-0.1-2.2-0.5-2.1-2.2C234.8,294.4,234.8,290.9,234.8,287z M265.1,288.6c-10.1-0.3-19.9-0.6-29.7-0.9
		c0,4.1,0,7.7,0,11.7c10,0.8,19.8,1.5,29.7,2.3C265.1,297,265.1,293,265.1,288.6z"/>
	<path class="st0" d="M406.3,278.9c-11,0-21.1,0-31.4,0c0-4.5,0-8.9,0-13.8c2.9,0,5.5,0,8.2,0c7-0.1,13.9-0.2,20.9-0.4
		c1.6,0,2.4,0.5,2.3,2.1C406.2,270.7,406.3,274.5,406.3,278.9z M375.6,278.4c5.9,0,11.5,0,17.2,0c3.5,0,7-0.1,10.4-0.1
		c1.4,0,2-0.5,2-2c0.1-2.9,0.3-5.8,0.5-8.7c0.1-1.8-0.6-2.4-2.4-2.3c-4.3,0.2-8.6,0.3-12.8,0.3c-4.9,0.1-9.8,0-14.9,0
		C375.6,270,375.6,274.1,375.6,278.4z"/>
	<path class="st0" d="M335.9,267.1c0,4.6,0,9.3,0,14.1c-10.5,0-20.8,0-31.3,0c0-4.6,0-9.1,0-14.1C315,267.1,325.4,267.1,335.9,267.1
		z M305,280.5c10.2,0,20.1,0,30.1,0c0-4.5,0-8.7,0-13c-3.2,0-6.3,0-9.3,0c-6.1,0-12.1,0.1-18.2,0.2c-1.1,0-2.6-0.2-2.5,1.7
		C305.1,273.1,305,276.7,305,280.5z"/>
	<path class="st0" d="M299.9,344.6c-10-0.6-19.6-1.2-29.5-1.8c0-3.7,0-7.4,0-11.4c9.6,0.3,19.5,0.7,29.5,1
		C299.9,336.4,299.9,340.3,299.9,344.6z M299.2,343.9c0-3.8,0-7.3,0-10.9c-9.6-0.3-18.9-0.6-28.4-0.9c0,3.4,0,6.6,0,10.1
		C280.3,342.8,289.6,343.3,299.2,343.9z"/>
	<path class="st0" d="M374.2,322c0-3.8-0.1-7.4,0.1-11c0-0.5,1.5-1.4,2.3-1.4c7.3-0.4,14.5-0.7,21.8-1c2.1-0.1,4.2,0,6.5,0
		c-0.3,3.8-0.5,7.5-0.9,11.2c0,0.5-0.7,1.2-1.1,1.2C393.6,321.3,384.2,321.6,374.2,322z M404.3,309.3c-4,0-7.7-0.1-11.4,0
		c-5.2,0.1-10.4,0.4-15.5,0.7c-0.8,0.1-2.3,0.8-2.3,1.4c-0.2,3.2-0.1,6.4-0.1,9.9c9.7-0.3,19-0.7,28.4-1
		C403.7,316.4,404,312.9,404.3,309.3z"/>
	<path class="st0" d="M404.1,330.2c-0.2,3.9-0.3,7.7-0.5,11.9c-10,0.4-19.8,0.9-29.8,1.3c0-4.4,0-8.6,0-13.2
		C383.7,330.2,393.7,330.2,404.1,330.2z M374.4,342.6c9.3-0.4,18.3-0.7,27.3-1.2c0.5,0,1.2-0.9,1.3-1.4c0.1-3.1,0.1-6.3,0.1-9.3
		c-9.4,0-19,0-28.7,0C374.4,334.8,374.4,338.5,374.4,342.6z"/>
	<path class="st0" d="M205.1,348.6c9.6,0.4,19.1,0.9,28.7,1.3c0,5.4,0,10.5,0,16.2c-4.3-0.4-8.6-0.5-12.8-1.2
		c-4.8-0.8-9.4-2.2-14.1-3.3c-1.4-0.3-1.9-1.2-1.9-2.6C205.1,355.6,205.1,352.2,205.1,348.6z M205.7,349.3c0,3.3,0.1,6.2,0,9.2
		c-0.1,1.5,0.5,2.1,1.8,2.6c6.4,2.4,13.1,3.4,19.9,3.8c1.9,0.1,3.8,0,5.8,0c0-4.5,0.1-8.8-0.1-13c0-0.5-1.1-1.4-1.8-1.5
		c-2.3-0.3-4.7-0.2-7-0.3C218.2,349.8,212,349.5,205.7,349.3z"/>
	<path class="st0" d="M371.2,266.7c-0.2,3.7-0.3,7.6-0.8,11.4c-0.1,0.6-1.7,1.5-2.7,1.5c-7.3,0.3-14.6,0.4-21.9,0.6
		c-1.8,0-3.7,0-5.8,0c0-4.4,0-8.8,0-13.6C350.3,266.7,360.5,266.7,371.2,266.7z M340.7,279.9c9.9-0.3,19.4-0.5,29.2-0.8
		c0.2-4.3,0.4-8.1,0.6-11.8c-10.2,0-20,0-29.8,0C340.7,271.6,340.7,275.6,340.7,279.9z"/>
	<path class="st0" d="M372.9,367.2c0.4-5.4,0.7-10.4,1-15.8c9.7-0.3,19.3-0.5,28.8-0.8c0,3.7,0.1,7.2-0.1,10.6
		c0,0.6-1.4,1.4-2.2,1.6c-7,1.2-14,2.3-21.1,3.5C377.4,366.7,375.4,366.9,372.9,367.2z M373.6,366.5c2.7-0.4,5.1-0.6,7.4-1
		c6.3-1,12.6-2,18.9-3.1c0.8-0.1,2.2-1,2.2-1.6c0.2-3.1,0.1-6.2,0.1-9.5c-9.3,0.3-18.4,0.5-27.6,0.8
		C374.3,356.9,373.9,361.5,373.6,366.5z"/>
	<path class="st0" d="M197.8,264.7c0,4.5,0,8.8,0,13.1c-4,0-7.9,0.1-11.8,0c-5.3-0.1-10.5-0.5-15.8-0.6c-1.8,0-2.5-0.5-2.4-2.3
		c0.1-3.8,0-7.6,0-11.7C178,263.6,187.8,264.1,197.8,264.7z M197.3,277.5c0-3.6-0.1-6.8,0-10c0-1.6-0.4-2.2-2.2-2.3
		c-4.9-0.2-9.7-0.6-14.5-0.8c-4-0.2-8-0.4-12-0.6c0,4.4,0,8.4,0,12.6C178.2,276.7,187.5,277.1,197.3,277.5z"/>
	<path class="st0" d="M265.4,280.4c-10.3-0.4-20.2-0.7-30.4-1.1c0-4.7,0-9.1,0-14c10,0.2,20.1,0.5,30.4,0.7
		C265.4,270.9,265.4,275.5,265.4,280.4z M235.6,278.7c9.9,0.4,19.4,0.7,29.2,1.1c0-4.5,0-8.6,0-13.3c-9.7,0-19.5,0-29.2,0
		C235.6,270.4,235.6,274.5,235.6,278.7z"/>
	<path class="st0" d="M201.7,277.7c0-4.3,0-8.3,0-12.3c9.7,0,19.6,0,29.6,0c0,4.6,0,8.9,0,13.5C221.6,278.6,211.9,278.2,201.7,277.7
		z M202.3,266.1c0,3.6,0,7.2,0,11c9.7,0.4,19,0.8,28.3,1.2c0-4.1,0-7.9,0-12.2C220.9,266.1,211.6,266.1,202.3,266.1z"/>
	<path class="st0" d="M300.1,302.7c-10.2-0.5-20.2-1.1-30.5-1.6c-0.2-4.4-0.4-8.6-0.7-12.8c10.5,0,20.7,0,31.1,0
		C300.1,293.3,300.1,297.8,300.1,302.7z M269.7,289c0.2,3.4,0.3,7,0.6,10.5c0,0.4,1.1,1.1,1.7,1.1c7,0.4,14.1,0.7,21.1,1.1
		c2.1,0.1,4.3,0.2,6.5,0.3c0-4.4,0-8.5,0-13C289.6,289,279.9,289,269.7,289z"/>
	<path class="st0" d="M304.8,289.1c10.2,0,20.3,0,30.6,0c0,4.5,0,8.9,0,13.4c-10.1,0-20.2,0-30.6,0
		C304.8,298.1,304.8,293.7,304.8,289.1z M305.4,289.7c0,4.3,0,8.3,0,12.3c10,0,19.6,0,29.2,0c0-4.2,0-8.2,0-12.3
		C324.8,289.7,315.1,289.7,305.4,289.7z"/>
	<path class="st0" d="M370.4,310.3c-0.3,4.2-0.5,8.3-0.8,12.6c-10,0-19.8,0-29.9,0c0-4.1,0-8.2,0-12.6
		C349.9,310.3,360.1,310.3,370.4,310.3z M340.2,310.9c0,3.6-0.1,6.9,0.1,10.1c0,0.5,0.9,1.4,1.4,1.4c8.7,0.1,17.3,0.1,26,0
		c0.5,0,1.4-0.7,1.4-1.1c0.3-3.4,0.4-6.9,0.6-10.4C359.8,310.9,350.1,310.9,340.2,310.9z"/>
	<path class="st0" d="M203,318.9c0-3.9,0-7.4,0-11.4c9.5,0.5,19.1,1,28.9,1.5c0,3.3,0.1,6.4-0.1,9.5c0,0.5-1,1.3-1.5,1.3
		C221.3,319.6,212.3,319.2,203,318.9z M203.6,318.2c9.4,0.3,18.4,0.7,27.5,1c0-3.4,0-6.5,0-9.7c-9.3-0.5-18.4-1-27.5-1.5
		C203.6,311.5,203.6,314.7,203.6,318.2z"/>
	<path class="st0" d="M202,286.1c10,0.4,19.6,0.9,29.5,1.3c0,4.1,0,7.9,0,12.2c-9.9-0.3-19.6-0.6-29.5-0.9
		C202,294.5,202,290.5,202,286.1z M202.6,286.8c0,4,0,7.5,0,11.3c9.4,0.3,18.7,0.6,28.2,0.9c0-3.8,0-7.2,0-10.9
		C221.4,287.6,212.1,287.2,202.6,286.8z"/>
	<path class="st0" d="M300.1,310.8c0,4.2,0,8.1,0,12.2c-0.5,0.1-0.9,0.2-1.4,0.2c-8.9-0.2-17.8-0.4-26.7-0.6c-1.6,0-2.3-0.4-2.3-2.2
		c0.1-3.5,0-6.9,0-10.7C279.9,310.1,289.9,310.4,300.1,310.8z M270.4,310.4c0,4,0,7.6,0,11.5c9.8,0.3,19.5,0.5,29.1,0.7
		c0-3.9,0-7.5,0-11.2C289.7,311.1,280.1,310.7,270.4,310.4z"/>
	<path class="st0" d="M408.8,320.3c0-4.4,0-8.3,0-12.6c9.3-0.4,18.6-0.7,28-1.1c-1.2,4.2-2.4,8.3-3.6,12.3c-0.2,0.6-0.9,1.3-1.3,1.3
		C424.2,320.3,416.7,320.3,408.8,320.3z M435.9,307.3c-9,0.3-17.6,0.7-26.2,1c0,4,0,7.6,0,11.4c7.2,0,14.3,0,21.3-0.1
		c0.6,0,1.4-0.7,1.6-1.2C433.7,314.9,434.7,311.3,435.9,307.3z"/>
	<path class="st0" d="M168.8,284.2c10.1,0.7,19.7,1.3,29.4,1.9c0,4.3,0,8.3,0,12.8c-1.8,0-3.3,0-4.8,0c-6.7-0.1-13.4-0.2-20.2-0.2
		c-1.8,0-2.5-0.6-2.7-2.2C169.9,292.6,169.4,288.6,168.8,284.2z M197.5,286.7c-9.2-0.6-18.4-1.2-28-1.8c0.6,4.2,1.1,8.1,1.8,11.8
		c0.1,0.5,1.2,1.2,1.8,1.3c2.8,0.2,5.7,0.2,8.5,0.2c5.2,0,10.4,0,15.9,0C197.5,294.3,197.5,290.6,197.5,286.7z"/>
	<path class="st0" d="M199.2,307.4c0,4.3,0,8.1,0,12.2c-7.5,0-14.8,0-22.2-0.1c-0.6,0-1.5-0.8-1.6-1.4c-1.2-4.3-2.2-8.6-3.5-13.4
		C181.2,305.7,190.1,306.6,199.2,307.4z M198.4,308c-8.5-0.8-16.9-1.6-25.5-2.5c0.5,2.4,0.9,4.4,1.4,6.5c1.7,7,1.7,7,8.8,7
		c5.1,0,10.2,0,15.4,0C198.4,315.2,198.4,311.7,198.4,308z"/>
	<path class="st0" d="M305,310.7c10.3,0,20.3,0,30.4,0c0,4.2,0,8.5,0,12.8c-0.7,0.1-1.3,0.2-1.9,0.2c-8.7,0-17.3,0-26,0
		c-1.9,0-2.6-0.5-2.5-2.5C305.1,317.9,305,314.6,305,310.7z M305.8,323c9.8,0,19.4,0,29,0c0-4,0-7.8,0-11.5c-9.8,0-19.5,0-29,0
		C305.8,315.5,305.8,319.2,305.8,323z"/>
	<path class="st0" d="M339,344.1c0-4.3,0-8.2,0-12.5c10,0,20.2,0,30.5,0c0,3.7,0,7.5,0,11.7C359.5,343.6,349.4,343.8,339,344.1z
		 M368.9,332.2c-9.9,0-19.6,0-29.2,0c0,3.9,0,7.5,0,11.2c9.8-0.3,19.5-0.5,29.2-0.8C368.9,338.9,368.9,335.6,368.9,332.2z"/>
	<path class="st0" d="M236,321.2c0-4.2,0-8.1,0-12.2c10,0.4,19.8,0.7,29.8,1.1c0,3.9,0,7.7,0,11.9C256,321.7,246.1,321.5,236,321.2z
		 M265.4,320.8c0-2.5-0.1-5.1,0-7.8c0.1-2.1-0.8-2.6-2.7-2.6c-7.4-0.1-14.7-0.4-22-0.6c-1.4,0-2.8,0-4.1,0c0,3.7,0,7.2,0,11
		C246.3,320.8,255.7,320.8,265.4,320.8z"/>
	<path class="st0" d="M304.7,344.3c-0.2-4-0.4-7.8-0.6-12.2c10.4,0,20.6,0,30.9,0c0,3.8,0,7.9,0,12.2
		C324.9,344.3,315,344.3,304.7,344.3z M305.2,343.6c9.9,0,19.5,0,29.2,0c0-3.9,0-7.5,0-10.9c-9.9,0-19.7,0-29.2,0
		C305.2,336.7,305.2,340.2,305.2,343.6z"/>
	<path class="st0" d="M232.6,329.9c0,3.8,0,7.4,0,11c-9.5,0-19,0-28.7,0c-0.2-4.3-0.4-8.2-0.6-12.6
		C213.1,328.8,222.7,329.4,232.6,329.9z M232,330.5c-9.4-0.5-18.6-1-27.7-1.5c0,3.8,0,7.3,0,11.2c9.4,0,18.5,0,27.7,0
		C232,337.2,232,334,232,330.5z"/>
	<path class="st0" d="M300.5,266.8c0,5,0,9.4,0,13.9c-10.3,0-20.5,0-30.8,0c0-4.7,0-9.3,0-13.9C279.9,266.8,290.1,266.8,300.5,266.8
		z M270.3,280.1c10,0,19.8,0,29.7,0c0-4.2,0-8.2,0-12.6c-9.9,0-19.8,0-29.7,0C270.3,271.6,270.3,275.8,270.3,280.1z"/>
	<path class="st0" d="M407.3,341c0-3.7-0.1-7.1,0.1-10.6c0-0.5,0.9-1.3,1.4-1.4c7.5-0.6,15-1,22.9-1.5c-1.4,3.5-2.6,6.8-3.9,10
		c-1.8,4.6-1.8,4.6-6.8,4.2C416.5,341.5,412,341.3,407.3,341z M408,340.1c0.1,0,0.3,0.2,0.5,0.2c5.4,0.3,10.8,0.7,16.2,0.9
		c0.4,0,1-0.3,1.1-0.7c1.6-4,3.2-8,4.9-12.4c-7.8,0.5-15.1,1-22.7,1.5C408,333.3,408,336.7,408,340.1z"/>
	<path class="st0" d="M176.7,326.3c8,0.6,15.6,1.2,23.3,1.8c0,3.7,0,7.2,0,11.1c-3.7,0.3-7.4,0.6-11,0.9c-0.6,0-1.1,0-1.7,0.1
		c-5.2,0.3-5.2,0.3-7.1-4.6C178.9,332.6,177.9,329.7,176.7,326.3z M199.3,338.6c0-3.4,0-6.5,0-9.9c-7.1-0.6-14.3-1.1-21.8-1.7
		c1.6,4,3,7.5,4.3,11c0.5,1.5,1.4,1.9,3,1.7C189.5,339.3,194.3,339,199.3,338.6z"/>
	<path class="st0" d="M424.1,348.3c-4.8,6.2-9.7,11-17.1,13.1c0-3.9,0-7.6,0-11.5C412.4,349.4,417.9,348.8,424.1,348.3z
		 M422.5,349.1c-5.2,0.5-9.7,0.9-14.3,1.3c-0.4,0-1,0.7-1,1c-0.1,3,0,5.9,0,9.2C413.9,358.5,418.2,354.3,422.5,349.1z"/>
	<path class="st0" d="M201,360.1c-5.1-0.5-13.6-7.3-17.1-13.6c5.4,0.7,10.7,1.3,15.9,2c0.4,0.1,1.1,0.8,1.1,1.2
		C201.1,353.1,201,356.5,201,360.1z M185.6,347.3c2.8,5.2,10.9,11.7,14.7,11.8c0-3.2,0-6.4,0-9.9C195.5,348.6,190.6,348,185.6,347.3
		z"/>
	<path class="st0" d="M244.9,412c0-15.5,0-30.9,0-46.4c38.2,0,76.2,0,114.4,0c0,15.4,0,30.8,0,46.4C321.3,412,283.2,412,244.9,412z
		 M245.7,411.3c37.7,0,75.2,0,112.8,0c0-15,0-29.9,0-44.9c-37.7,0-75.2,0-112.8,0C245.7,381.4,245.7,396.3,245.7,411.3z"/>
	<path class="st0" d="M303.3,229.7c4.1,0.2,8,0.9,11.3,3.3c4.9,3.6,4.9,9.1,0,12.7c-5.9,4.3-16.5,4.3-22.5,0.1c-5-3.6-5-9.2,0-12.9
		C295.6,230.5,299.4,229.9,303.3,229.7z M304.5,230.6c-5.4,0-9.8,1.3-12.5,3.6c-3.7,3.1-3.6,7.3,0.1,10.3c5.7,4.6,16.6,4.7,22.3,0.1
		c4-3.2,4-7.5,0-10.6C311.3,231.6,307.6,230.8,304.5,230.6z"/>
	<path class="st0" d="M197.6,256.2c-9.8,0-19.1,0-28.4,0c-2.7-7.1,1.2-13.5,8.5-14.2c6-0.5,12.1-0.4,18.2-0.5c0.6,0,1.6,0.9,1.6,1.4
		C197.7,247.3,197.6,251.7,197.6,256.2z"/>
	<path class="st0" d="M411.1,256.7c0-5.2,0-9.9,0-14.9c7.5,0,15.1-0.6,22.5,0.2c6.7,0.7,9.3,5.7,7.7,12.3c-0.4,1.5-1.1,2.2-2.6,2.2
		c-7,0.1-13.9,0.2-20.9,0.3C415.7,256.7,413.6,256.7,411.1,256.7z"/>
	<path class="st0" d="M440.4,278.4c-10.4,0-20.2,0-30.2,0c0-4.5,0-8.9,0-13.6c10-0.5,20.1-1,30.2-1.4
		C440.4,268.3,440.4,273.2,440.4,278.4z"/>
	<path class="st0" d="M375.6,288.6c9.8-0.3,19.3-0.6,29.2-0.9c-0.3,3.9-0.6,7.7-0.9,11.8c-9.5,0-18.8,0-28.2,0
		C375.6,296.1,375.6,292.5,375.6,288.6z"/>
	<path class="st0" d="M409.7,286.9c9.8-0.3,19.5-0.6,29.5-0.9c-0.5,4.4-1,8.6-1.4,12.9c-9.4,0-18.6,0-28.1,0
		C409.7,294.8,409.7,291.1,409.7,286.9z"/>
	<path class="st0" d="M236.9,340.6c0-3.3,0-6.4,0-9.9c9.6,0.3,19.1,0.7,28.8,1c0,3.4,0,6.6,0,10.1
		C255.9,341.5,246.5,341.1,236.9,340.6z"/>
	<path class="st0" d="M369.4,289c0,3.8,0,7.6,0,11.8c-9.7,0.4-19.2,0.8-28.9,1.3c-0.2-4.3-0.4-8.5-0.7-13.1
		C349.8,289,359.5,289,369.4,289z"/>
	<path class="st0" d="M265.1,288.6c0,4.3,0,8.4,0,13.1c-9.9-0.7-19.6-1.5-29.7-2.3c0-4,0-7.7,0-11.7
		C245.2,288,255,288.3,265.1,288.6z"/>
	<path class="st0" d="M375.6,278.4c0-4.3,0-8.4,0-12.8c5.1,0,10,0,14.9,0c4.3,0,8.6-0.1,12.8-0.3c1.8-0.1,2.5,0.5,2.4,2.3
		c-0.2,2.9-0.4,5.8-0.5,8.7c0,1.5-0.7,2-2,2c-3.5,0-7,0.1-10.4,0.1C387.1,278.4,381.5,278.4,375.6,278.4z"/>
	<path class="st0" d="M305,280.5c0-3.8,0-7.4,0-11c0-1.9,1.4-1.7,2.5-1.7c6.1-0.1,12.1-0.2,18.2-0.2c3.1,0,6.1,0,9.3,0
		c0,4.3,0,8.5,0,13C325.1,280.5,315.2,280.5,305,280.5z"/>
	<path class="st0" d="M299.2,343.9c-9.6-0.6-18.9-1.2-28.4-1.8c0-3.4,0-6.6,0-10.1c9.4,0.3,18.8,0.6,28.4,0.9
		C299.2,336.7,299.2,340.1,299.2,343.9z"/>
	<path class="st0" d="M404.3,309.3c-0.3,3.5-0.6,7.1-1,11c-9.4,0.3-18.7,0.7-28.4,1c0-3.5-0.1-6.7,0.1-9.9c0-0.5,1.5-1.3,2.3-1.4
		c5.2-0.3,10.3-0.6,15.5-0.7C396.6,309.3,400.3,309.3,404.3,309.3z"/>
	<path class="st0" d="M374.4,342.6c0-4.1,0-7.8,0-11.8c9.7,0,19.2,0,28.7,0c0,3.1,0.1,6.2-0.1,9.3c0,0.5-0.8,1.3-1.3,1.4
		C392.7,341.9,383.6,342.3,374.4,342.6z"/>
	<path class="st0" d="M205.7,349.3c6.3,0.3,12.5,0.6,18.7,0.8c2.3,0.1,4.7,0.1,7,0.3c0.7,0.1,1.8,1,1.8,1.5c0.2,4.3,0.1,8.6,0.1,13
		c-2.1,0-4,0.1-5.8,0c-6.8-0.5-13.5-1.4-19.9-3.8c-1.3-0.5-1.9-1.2-1.8-2.6C205.8,355.5,205.7,352.5,205.7,349.3z"/>
	<path class="st0" d="M340.7,279.9c0-4.4,0-8.3,0-12.6c9.8,0,19.6,0,29.8,0c-0.2,3.7-0.4,7.5-0.6,11.8
		C360.1,279.4,350.6,279.7,340.7,279.9z"/>
	<path class="st0" d="M373.6,366.5c0.3-4.9,0.7-9.6,1-14.4c9.2-0.3,18.3-0.5,27.6-0.8c0,3.3,0.1,6.4-0.1,9.5c0,0.6-1.4,1.4-2.2,1.6
		c-6.3,1.1-12.6,2.1-18.9,3.1C378.7,365.8,376.3,366.1,373.6,366.5z"/>
	<path class="st0" d="M197.3,277.5c-9.9-0.4-19.1-0.7-28.7-1.1c0-4.2,0-8.3,0-12.6c4,0.2,8,0.4,12,0.6c4.9,0.3,9.7,0.7,14.5,0.8
		c1.7,0.1,2.2,0.7,2.2,2.3C197.2,270.6,197.3,273.9,197.3,277.5z"/>
	<path class="st0" d="M235.6,278.7c0-4.3,0-8.3,0-12.2c9.7,0,19.5,0,29.2,0c0,4.6,0,8.8,0,13.3C255,279.4,245.4,279.1,235.6,278.7z"
		/>
	<path class="st0" d="M202.3,266.1c9.3,0,18.7,0,28.3,0c0,4.3,0,8.1,0,12.2c-9.3-0.4-18.7-0.8-28.3-1.2
		C202.3,273.3,202.3,269.7,202.3,266.1z"/>
	<path class="st0" d="M269.7,289c10.2,0,19.9,0,29.8,0c0,4.5,0,8.6,0,13c-2.2-0.1-4.3-0.2-6.5-0.3c-7-0.3-14.1-0.7-21.1-1.1
		c-0.6,0-1.7-0.7-1.7-1.1C270,296,269.9,292.5,269.7,289z"/>
	<path class="st0" d="M305.4,289.7c9.7,0,19.4,0,29.2,0c0,4.1,0,8.1,0,12.3c-9.7,0-19.3,0-29.2,0C305.4,297.9,305.4,294,305.4,289.7
		z"/>
	<path class="st0" d="M340.2,310.9c9.9,0,19.6,0,29.5,0c-0.2,3.5-0.3,6.9-0.6,10.4c0,0.4-0.9,1.1-1.4,1.1c-8.7,0.1-17.3,0.1-26,0
		c-0.5,0-1.4-0.9-1.4-1.4C340.1,317.7,340.2,314.5,340.2,310.9z"/>
	<path class="st0" d="M203.6,318.2c0-3.5,0-6.7,0-10.1c9.2,0.5,18.3,1,27.5,1.5c0,3.2,0,6.2,0,9.7C222,318.9,213,318.6,203.6,318.2z
		"/>
	<path class="st0" d="M202.6,286.8c9.5,0.4,18.9,0.8,28.2,1.2c0,3.7,0,7.1,0,10.9c-9.5-0.3-18.8-0.6-28.2-0.9
		C202.6,294.3,202.6,290.8,202.6,286.8z"/>
	<path class="st0" d="M270.4,310.4c9.7,0.3,19.3,0.7,29.1,1c0,3.7,0,7.3,0,11.2c-9.6-0.2-19.3-0.5-29.1-0.7
		C270.4,318,270.4,314.4,270.4,310.4z"/>
	<path class="st0" d="M435.9,307.3c-1.2,4-2.2,7.6-3.3,11.1c-0.2,0.5-1.1,1.2-1.6,1.2c-7,0.1-14.1,0.1-21.3,0.1c0-3.8,0-7.4,0-11.4
		C418.3,308,426.9,307.7,435.9,307.3z"/>
	<path class="st0" d="M197.5,286.7c0,3.9,0,7.6,0,11.5c-5.5,0-10.7,0-15.9,0c-2.8,0-5.7,0-8.5-0.2c-0.7,0-1.7-0.7-1.8-1.3
		c-0.7-3.8-1.2-7.6-1.8-11.8C179.1,285.5,188.3,286.1,197.5,286.7z"/>
	<path class="st0" d="M198.4,308c0,3.7,0,7.2,0,11c-5.2,0-10.3,0-15.4,0c-7.1,0-7.1,0-8.8-7c-0.5-2-0.9-4.1-1.4-6.5
		C181.6,306.4,189.9,307.2,198.4,308z"/>
	<path class="st0" d="M305.8,323c0-3.8,0-7.5,0-11.5c9.5,0,19.2,0,29,0c0,3.7,0,7.5,0,11.5C325.2,323,315.6,323,305.8,323z"/>
	<path class="st0" d="M368.9,332.2c0,3.3,0,6.7,0,10.5c-9.7,0.3-19.4,0.5-29.2,0.8c0-3.8,0-7.3,0-11.2
		C349.3,332.2,359,332.2,368.9,332.2z"/>
	<path class="st0" d="M265.4,320.8c-9.7,0-19.2,0-28.8,0c0-3.8,0-7.3,0-11c1.3,0,2.7,0,4.1,0c7.3,0.2,14.7,0.5,22,0.6
		c1.9,0,2.8,0.5,2.7,2.6C265.3,315.7,265.4,318.4,265.4,320.8z"/>
	<path class="st0" d="M305.2,343.6c0-3.4,0-6.9,0-10.9c9.6,0,19.4,0,29.2,0c0,3.4,0,7,0,10.9C324.7,343.6,315.1,343.6,305.2,343.6z"
		/>
	<path class="st0" d="M232,330.5c0,3.5,0,6.7,0,9.8c-9.2,0-18.3,0-27.7,0c0-3.9,0-7.4,0-11.2C213.4,329.5,222.5,330,232,330.5z"/>
	<path class="st0" d="M270.3,280.1c0-4.3,0-8.5,0-12.6c9.9,0,19.7,0,29.7,0c0,4.4,0,8.4,0,12.6C290.1,280.1,280.3,280.1,270.3,280.1
		z"/>
	<path class="st0" d="M408,340.1c0-3.5,0-6.8,0-10.4c7.6-0.5,14.9-1,22.7-1.5c-1.7,4.4-3.2,8.4-4.9,12.4c-0.1,0.3-0.8,0.7-1.1,0.7
		c-5.4-0.3-10.8-0.6-16.2-0.9C408.3,340.4,408.1,340.2,408,340.1z"/>
	<path class="st0" d="M199.3,338.6c-5,0.4-9.8,0.7-14.6,1.1c-1.5,0.1-2.4-0.3-3-1.7c-1.3-3.5-2.8-7.1-4.3-11
		c7.6,0.6,14.7,1.2,21.8,1.7C199.3,332.1,199.3,335.2,199.3,338.6z"/>
	<path class="st0" d="M422.5,349.1c-4.4,5.2-8.6,9.4-15.3,11.5c0-3.3,0-6.2,0-9.2c0-0.4,0.6-1,1-1
		C412.8,349.9,417.4,349.6,422.5,349.1z"/>
	<path class="st0" d="M185.6,347.3c5,0.6,9.8,1.2,14.7,1.9c0,3.5,0,6.7,0,9.9C196.5,359,188.4,352.6,185.6,347.3z"/>
	<path class="st0" d="M245.7,411.3c0-15,0-29.9,0-44.9c37.6,0,75.1,0,112.8,0c0,15,0,29.8,0,44.9
		C320.9,411.3,283.4,411.3,245.7,411.3z"/>
	<path class="st0" d="M304.5,230.6c3,0.1,6.8,0.9,10,3.4c4,3.2,3.9,7.5,0,10.6c-5.7,4.6-16.6,4.5-22.3-0.1c-3.7-3-3.8-7.2-0.1-10.3
		C294.7,232,299.1,230.6,304.5,230.6z M303.1,246.9c4,0,7.1-3.1,7.1-7.1c0-3.8-3.2-7-7-7.1c-3.9-0.1-7.1,3.1-7.2,7.1
		C296,243.8,299,246.9,303.1,246.9z M311.4,243.1c2.1-0.2,3.2-1.3,3.4-3.2c0.2-2.3-1.3-3.5-3.4-4.4
		C311.4,238.2,311.4,240.6,311.4,243.1z M294.2,235.5c-2,1.2-3.8,2.3-3.4,4.8c0.3,1.8,1.4,2.9,3.4,2.9
		C294.2,240.6,294.2,238.2,294.2,235.5z"/>
	<path class="st0" d="M303.1,246.9c-4.1,0-7.1-3-7-7.1c0-4,3.3-7.1,7.2-7.1c3.8,0.1,6.9,3.3,7,7.1
		C310.2,243.8,307.1,246.9,303.1,246.9z M303,246c3.3,0.1,6.2-2.7,6.3-6.1c0.1-3.2-2.8-6.2-6.1-6.3c-3.2-0.1-6.2,2.9-6.3,6.1
		C296.9,243.1,299.7,246,303,246z"/>
	<path class="st0" d="M311.4,243.1c0-2.5,0-5,0-7.6c2.1,0.9,3.6,2.1,3.4,4.4C314.6,241.8,313.5,243,311.4,243.1z"/>
	<path class="st0" d="M294.2,235.5c0,2.8,0,5.1,0,7.7c-2,0-3.1-1.1-3.4-2.9C290.3,237.8,292.2,236.7,294.2,235.5z M293.1,242.1
		c0-1.6,0-3,0-4.8C291.3,239,291,240.4,293.1,242.1z"/>
	<path class="st0" d="M303,246c-3.3-0.1-6.2-2.9-6.1-6.3c0.1-3.3,3.1-6.2,6.3-6.1c3.3,0.1,6.2,3.1,6.1,6.3
		C309.3,243.3,306.4,246.1,303,246z"/>
	<path class="st0" d="M293.1,242.1c-2.1-1.7-1.8-3.1,0-4.8C293.1,239.1,293.1,240.4,293.1,242.1z"/>
</g>
</svg>
